<svg xmlns="http://www.w3.org/2000/svg" width="298" height="267" fill="none"><path stroke="#161C22" stroke-width="2" d="m159.882 239.076-8.998-6.753-.558-.419-.585.379-17.315 11.191c-36.246 23.427-66.514 28.341-93.787 15.643-12.735-5.929-21.886-15.194-27.875-28.725C4.76 216.824 1.92 198.93 1.92 175.749c0-29.839 10.074-70.315 24.184-97.17C44.901 42.81 82.683 12.164 118.115 3.853c5.952-1.396 19.771-2.683 30.678-2.84 81.675-1.16 146.322 75.056 147.272 174.523.35 36.727-5.771 56.722-21.959 72.909-6.966 6.966-14.139 11.613-22.493 14.297-8.365 2.688-17.978 3.429-29.853 2.486-8.575-.681-19.514-3.81-30.605-8.494-11.081-4.679-22.247-10.881-31.273-17.658Z"/><path fill="#EE4733" d="M82.92 143.111c0-18.319 9.918-31.654 26.034-35.007 13.628-2.835 21.357-.435 31.601 9.811l9.24 9.24 7.946-8.292c19.242-20.085 49.976-12.547 57.323 14.061 4.872 17.641-.343 28.088-28.808 57.705-35.083 36.504-36.374 36.521-71.44.957-28.712-29.123-31.896-33.961-31.896-48.475Z"/><g clip-path="url(#a)"><path fill="#fff" fill-rule="evenodd" d="M107.931 124.213c-5.729.946-10.373 3.394-14.209 7.492-5.58 5.962-7.283 14.531-4.463 22.445 1.153 3.239 3.765 7.92 5.262 9.433l.561.567.116 3.378c.13 3.808.422 6.026 1.22 9.282 1.948 7.945 6.208 13.862 12.175 16.912 1.712.875 2.88 1.195 5.259 1.442 5.042.523 9.71-1.328 14.049-5.568 3.667-3.583 7.621-9.834 9.076-14.348l.507-1.573 1.973-.517c4.601-1.209 9.741-3.355 12.861-5.371l.925-.597-.089 2.162c-.086 2.121-.079 2.17.369 2.623.468.473 1.548.793 2.036.604.196-.076.273-.382.273-1.083 0-1.159.576-2.207 1.943-3.533 2.268-2.203 6.761-4.418 9.662-4.763l.987-.118-.056 2.091c-.069 2.596.257 3.652 1.529 4.956 3.179 3.259 8.956 2.686 14.273-1.415.847-.653 1.574-1.127 1.617-1.055.042.073.137.421.211.774.38 1.812 1.964 3.649 3.961 4.593 1.824.863 3.464 1.152 6.546 1.152 2.586.001 2.799-.027 4.412-.586 2.568-.89 4.019-1.828 6.102-3.949 1.542-1.57 1.949-2.115 2.68-3.591.927-1.871 1.258-3.116.825-3.107-.138.003-1.221.955-2.407 2.115-3.684 3.603-6.972 5.777-10.081 6.668-1.659.475-4.335.67-5.351.39-1.144-.315-2.863-1.533-3.514-2.49-.32-.47-.547-.889-.505-.932.042-.043.518-.162 1.058-.266 2.181-.418 4.632-2.094 5.459-3.733 1.115-2.208-.746-4.851-3.427-4.865-1.917-.011-4.045 1.266-4.935 2.961-.339.647-.911 1.14-3.066 2.644-5.002 3.49-7.148 4.512-9.534 4.537-1.829.019-2.588-.361-2.979-1.491-.223-.645-.228-1.076-.029-2.943.205-1.928.199-2.254-.049-2.739-.37-.724-1.211-1.424-2.043-1.702-.966-.322-3.454-.108-5.408.465-1.599.469-4.838 1.956-6.412 2.943l-.796.499.091-1.286c.097-1.376-.005-1.701-.745-2.368-.354-.32-.652-.414-1.196-.38l-.725.045-.19 1.785c-.105.983-.268 1.864-.363 1.959-.728.735-12.024 4.951-14.462 5.399-.699.129-.702.126-.584-.387.733-3.165.863-4.488.959-9.766.112-6.06-.006-7.296-1.128-11.881-1.73-7.063-4.428-12.483-8.246-16.56-3.588-3.832-7.41-5.998-12.532-7.102-2.273-.491-7.208-.621-9.453-.251Zm1.135 2.301c-5.849.868-11.566 4.418-14.8 9.191-1.3 1.92-2.487 4.51-3.058 6.675-.415 1.574-.474 2.156-.482 4.812-.01 3.219.203 4.531 1.215 7.459.462 1.336 2.661 5.533 3.087 5.89.205.172.285-.102.463-1.581.118-.983.461-3.022.762-4.529 1.966-9.847 6.398-16.501 11.252-16.895 1.107-.089 1.174-.071 1.731.492.931.942.744 1.496-.585 1.739-1.691.308-3.359 1.541-4.918 3.635-1.089 1.463-2.792 5.006-3.592 7.474-1.096 3.381-2.03 8.723-2.126 12.147l-.035 1.274 1.071.986c2.285 2.104 6.024 4.206 9.495 5.339 6.383 2.084 15.717 2.442 23.825.916 1.096-.206 2.127-.416 2.292-.465.373-.112.918-2.126 1.359-5.021.462-3.041.467-11.32.009-14.282-1.903-12.288-6.431-19.88-13.995-23.463-3.487-1.652-8.892-2.399-12.97-1.793Zm82.185 35.848c-1.146.709-2.221 2.187-2.597 3.569-.17.627-.158.69.116.586.801-.303 2.376-1.379 3.242-2.215 1.048-1.01 1.26-1.737.61-2.088-.491-.266-.747-.238-1.371.148Zm-93.277 6.129c.307 5.716 1.362 10.311 3.322 14.461 2.24 4.743 6.029 8.504 9.565 9.495 7.957 2.23 16.147-3.276 21.423-14.401 1.581-3.334 1.677-3.57 1.453-3.57-.09 0-1.453.18-3.029.4-2.335.327-3.74.402-7.577.405-5.262.005-7.231-.241-11.564-1.442-4.514-1.251-10.118-3.919-12.704-6.048l-.969-.798.08 1.498Zm46.079 15.479c-2.114 1.136-2.077 4.339.065 5.462.764.401 2.384.39 3.245-.023l.679-.326v-2.522h-.543c-.537 0-.544.013-.544.986 0 .867-.049.999-.408 1.096-.986.267-1.611.125-2.237-.507-1.749-1.768.398-4.533 2.531-3.261.611.364.636.365.932.034.375-.418.225-.689-.563-1.022-.864-.365-2.397-.325-3.157.083Zm8.881 2.682v3.022h.543c.524 0 .544-.031.544-.824v-.824h.806c.752 0 .845.055 1.368.824.482.708.649.824 1.186.824h.625l-.652-.917-.651-.917.561-.646c.439-.505.561-.815.561-1.423 0-1.552-.919-2.14-3.346-2.14h-1.545v3.021Zm10.8-2.73c-1.641.93-2.115 2.983-1.062 4.606.439.677 1.632 1.215 2.676 1.205 3.12-.027 4.332-3.743 1.836-5.627-.665-.502-2.699-.61-3.45-.184Zm10.382.126c-.952.648-1.435 1.506-1.435 2.549 0 2.488 2.496 3.922 4.792 2.752.294-.149.63-.368.747-.486.873-.883 1.068-2.765.39-3.781-.694-1.041-1.473-1.451-2.758-1.451-.869 0-1.263.095-1.736.417Zm9.556-.295c-.066.067-.121 1.427-.121 3.022v2.899H184.638v-1.842c0-1.07.07-1.799.166-1.738.092.057.52.722.952 1.479 1.01 1.77 1.227 1.756 2.321-.15l.819-1.426.051 1.838.052 1.839h1.256l-.001-1.236c-.001-.68-.054-2.04-.118-3.022-.111-1.696-.138-1.785-.526-1.785-.328 0-.629.381-1.521 1.923-.612 1.057-1.145 1.922-1.184 1.922-.04 0-.586-.865-1.214-1.922-.866-1.461-1.231-1.923-1.519-1.923-.209 0-.434.055-.5.122Zm-29.651 1.961v1.213h.996c1.118 0 1.721-.407 1.721-1.162 0-.67-.608-1.087-1.724-1.18l-.993-.084v1.213Zm10.186-.8c-1.069.659-1.287 2.172-.448 3.12.981 1.111 2.864.85 3.411-.472.329-.798.324-1.079-.039-1.851-.529-1.128-1.818-1.479-2.924-.797Zm10.605-.081c-.574.315-1.044 1.134-1.044 1.819 0 2.053 2.757 2.886 3.804 1.149 1.142-1.893-.837-4.022-2.76-2.968Z" clip-rule="evenodd"/></g><defs><clipPath id="a"><path fill="#fff" d="M87.92 124h122v76h-122z"/></clipPath></defs></svg>