<svg xmlns="http://www.w3.org/2000/svg" width="297" height="267" fill="none"><path stroke="#161C22" stroke-width="2" d="m158.962 239.076-8.998-6.753-.558-.419-.585.379-17.315 11.191c-36.246 23.427-66.514 28.341-93.787 15.643-12.735-5.929-21.886-15.194-27.875-28.725C3.84 216.824 1 198.93 1 175.749c0-29.839 10.074-70.315 24.184-97.17C43.981 42.81 81.763 12.164 117.195 3.853c5.952-1.396 19.771-2.683 30.678-2.84 81.675-1.16 146.322 75.056 147.272 174.523.35 36.727-5.771 56.722-21.959 72.909-6.966 6.966-14.139 11.613-22.493 14.297-8.365 2.688-17.978 3.429-29.852 2.486-8.576-.681-19.515-3.81-30.606-8.494-11.081-4.679-22.246-10.881-31.273-17.658Z"/></svg>