<svg xmlns="http://www.w3.org/2000/svg" width="122" height="76" fill="none"><g clip-path="url(#a)"><path fill="#fff" fill-rule="evenodd" d="M20.011.213c-5.73.946-10.373 3.394-14.209 7.492C.222 13.667-1.48 22.236 1.34 30.15c1.153 3.239 3.765 7.92 5.262 9.433l.562.568.115 3.377c.13 3.808.422 6.026 1.22 9.282 1.949 7.945 6.208 13.861 12.176 16.912 1.712.875 2.88 1.195 5.259 1.442 5.04.523 9.709-1.328 14.048-5.568 3.667-3.583 7.62-9.834 9.076-14.348l.508-1.573 1.972-.517c4.601-1.209 9.74-3.355 12.861-5.37l.925-.598-.088 2.162c-.087 2.121-.08 2.17.368 2.623.468.473 1.548.793 2.036.604.196-.076.273-.382.273-1.083 0-1.16.576-2.207 1.943-3.534 2.268-2.202 6.76-4.417 9.662-4.762l.987-.118-.056 2.091c-.07 2.596.257 3.652 1.53 4.956 3.178 3.259 8.955 2.686 14.272-1.415.847-.653 1.574-1.127 1.617-1.055.042.073.137.421.211.774.38 1.812 1.964 3.649 3.962 4.593 1.823.863 3.463 1.152 6.545 1.152 2.586.001 2.799-.027 4.412-.586 2.568-.89 4.019-1.828 6.102-3.95 1.542-1.569 1.949-2.114 2.68-3.59.927-1.87 1.258-3.116.825-3.107-.138.003-1.221.955-2.407 2.115-3.684 3.602-6.972 5.777-10.081 6.668-1.659.475-4.335.67-5.351.39-1.144-.315-2.863-1.533-3.514-2.49-.32-.47-.547-.89-.505-.932.042-.043.518-.162 1.058-.266 2.181-.417 4.632-2.094 5.459-3.733 1.115-2.208-.746-4.85-3.427-4.865-1.917-.01-4.045 1.266-4.935 2.962-.34.646-.91 1.139-3.066 2.643-5.002 3.49-7.148 4.512-9.534 4.537-1.829.02-2.588-.36-2.979-1.49-.223-.646-.228-1.077-.029-2.944.205-1.928.2-2.254-.049-2.739-.37-.724-1.21-1.424-2.043-1.702-.966-.322-3.454-.108-5.408.465-1.599.47-4.838 1.956-6.412 2.943l-.796.5.09-1.287c.098-1.376-.004-1.701-.744-2.368-.354-.32-.652-.414-1.196-.38l-.725.045-.19 1.785c-.105.983-.268 1.864-.363 1.96-.728.734-12.024 4.95-14.462 5.398-.699.129-.702.126-.584-.387.733-3.165.863-4.488.96-9.766.111-6.06-.006-7.296-1.13-11.88-1.729-7.064-4.427-12.484-8.245-16.56-3.588-3.833-7.41-5.999-12.532-7.103-2.273-.49-7.208-.621-9.453-.25Zm1.135 2.3c-5.85.87-11.566 4.42-14.8 9.192-1.3 1.92-2.487 4.51-3.058 6.676-.415 1.573-.473 2.155-.482 4.811-.01 3.22.203 4.531 1.215 7.459.462 1.336 2.662 5.533 3.087 5.89.205.172.285-.102.463-1.58.118-.984.461-3.023.762-4.53 1.967-9.847 6.398-16.5 11.252-16.895 1.107-.09 1.174-.07 1.731.492.931.942.745 1.496-.585 1.739-1.69.308-3.36 1.541-4.918 3.635-1.089 1.462-2.792 5.006-3.592 7.473-1.096 3.382-2.03 8.724-2.126 12.148l-.035 1.274 1.071.986c2.285 2.104 6.025 4.206 9.495 5.34 6.383 2.083 15.717 2.441 23.825.915 1.096-.206 2.127-.416 2.292-.465.373-.112.918-2.126 1.359-5.02.462-3.042.467-11.32.009-14.283C46.208 15.482 41.68 7.89 34.116 4.307c-3.487-1.652-8.892-2.399-12.97-1.793Zm82.185 35.849c-1.145.709-2.221 2.187-2.597 3.569-.17.627-.158.69.116.586.801-.303 2.376-1.379 3.242-2.215 1.048-1.01 1.26-1.737.61-2.088-.491-.266-.747-.238-1.371.148Zm-93.276 6.13c.306 5.716 1.361 10.31 3.321 14.46 2.24 4.743 6.03 8.504 9.565 9.495 7.957 2.23 16.147-3.276 21.423-14.4 1.58-3.335 1.677-3.571 1.453-3.571-.09 0-1.453.18-3.03.4-2.334.327-3.74.402-7.576.405-5.262.005-7.231-.24-11.564-1.442-4.514-1.25-10.118-3.919-12.704-6.048l-.969-.797.08 1.497ZM56.133 59.97c-2.114 1.136-2.077 4.339.065 5.462.764.401 2.384.39 3.245-.023l.68-.326V62.56h-.544c-.537 0-.544.013-.544.986 0 .867-.049.999-.407 1.096-.987.267-1.612.125-2.238-.507-1.749-1.768.398-4.533 2.532-3.261.61.364.635.365.931.034.375-.418.225-.69-.562-1.022-.865-.365-2.398-.325-3.157.083Zm8.88 2.682v3.022h.544c.524 0 .544-.03.544-.824v-.824h.806c.752 0 .845.055 1.368.824.482.708.649.824 1.186.824h.625l-.652-.917-.651-.917.561-.646c.439-.505.561-.815.561-1.423 0-1.552-.919-2.14-3.346-2.14h-1.545v3.021Zm10.8-2.73c-1.64.93-2.114 2.983-1.061 4.606.439.677 1.632 1.215 2.677 1.206 3.12-.028 4.331-3.744 1.835-5.628-.665-.502-2.698-.61-3.45-.184Zm10.383.126c-.952.648-1.435 1.506-1.435 2.55 0 2.487 2.496 3.92 4.792 2.751.294-.15.63-.368.747-.486.874-.883 1.068-2.765.39-3.781-.694-1.041-1.473-1.45-2.758-1.45-.87 0-1.263.094-1.736.416Zm9.556-.295c-.066.067-.12 1.427-.12 3.022v2.899h1.086v-1.842c0-1.07.07-1.799.166-1.738.092.057.52.722.952 1.479 1.01 1.77 1.227 1.756 2.321-.15l.819-1.427.052 1.84.051 1.838h1.256l-.001-1.236c-.001-.68-.054-2.04-.118-3.022-.111-1.696-.138-1.785-.526-1.785-.328 0-.629.381-1.521 1.923-.611 1.057-1.144 1.922-1.184 1.922-.04 0-.586-.865-1.214-1.922-.866-1.461-1.231-1.923-1.52-1.923-.208 0-.433.055-.499.122Zm-29.651 1.961v1.213h.996c1.118 0 1.721-.407 1.721-1.162 0-.67-.608-1.087-1.724-1.18l-.993-.084v1.213Zm10.186-.8c-1.07.659-1.287 2.172-.448 3.12.981 1.11 2.864.85 3.41-.472.33-.798.325-1.079-.038-1.851-.53-1.128-1.818-1.48-2.924-.797Zm10.605-.08c-.574.314-1.044 1.133-1.044 1.818 0 2.053 2.757 2.885 3.804 1.15 1.142-1.895-.837-4.023-2.76-2.969Z" clip-rule="evenodd"/></g><defs><clipPath id="a"><path fill="#fff" d="M0 0h122v76H0z"/></clipPath></defs></svg>