<svg xmlns="http://www.w3.org/2000/svg" width="275" height="325" fill="none"><path stroke="#161C22" stroke-linecap="round" stroke-width="4" d="M124.048 53.821c19.144.15 36.41 4.676 52.813 12.934 0 0 10.891-14.5 21.783-24.857 10.891-10.357 22.803-21.594 23.96-20.714 1.158.881 18.765 57.313 21.783 95.284 3.022 38.027-2.343 83.06-6.506 97.457-4.164 14.397-19.633 53.754-42.865 77.403-23.232 23.65-43.249 33.512-74.79 30.206-32.82-3.439-51.965-20.626-67.61-48.276-4.453-7.872-6.451-13.865-8.789-21.308-2.337-7.444-6.85-31.894-8.553-52.627-2.386-29.044-.775-45.573 2.178-74.57 2.957-29.043 11.875-63.225 12.937-73.698 1.061-10.474 3.56-20.956 6.344-31.138 1.454-5.316 4.543-14.55 9.378-17.894 1.078-.746 15.98 16.992 23.619 29.526 5.538 9.087 11.911 24.391 11.911 24.391 7.204-1.909 14.984-2.177 22.407-2.119ZM215.154 194.844l57.341-13.725M215.05 208.552l36.834 3.569M52.88 184.117 2.204 174.063M52.881 198.499l-36.833 3.569"/><path stroke="#161C22" stroke-linecap="round" stroke-width="4" d="M113.694 192.417c2.887 3.572 11.765 7.222 16.776 6.735 5.01-.487 7.368-2.41 10.292-4.744 2.925-2.333 4.497-5.788 8.407-10.056 1.61-1.758 2.663 6.79 6.129 10.056 3.466 3.266 7.857 4.744 11.608 3.778 3.751-.966 5.841-3.544 7.602-5.534"/><ellipse cx="196.3" cy="161.498" fill="#161C22" rx="9.967" ry="9.944"/><ellipse cx="96.634" cy="161.498" fill="#161C22" rx="9.967" ry="9.944"/></svg>