<svg xmlns="http://www.w3.org/2000/svg" width="302" height="309" fill="none"><path fill="#35353B" d="M153.098 193.674s-27.282-4.197-27.282-27.282c0-5.21 2.099-8.394 6.296-10.493 4.476-2.237 8.378-3.238 15.339-3.992 11.083-1.2 20.359 3.121 25.183 6.306 4.825 3.185 6.919 7.662 6.296 12.608-1.62 12.856-25.832 22.853-25.832 22.853Z"/><path stroke="#35353B" stroke-linecap="round" stroke-width="4" d="M2 27.886c7.889-2.367 12.784-2.856 20.986-2.099 8.52.787 13.532 2.095 20.986 6.296 6.582 3.71 9.925 6.727 14.69 12.592 5.778 7.111 10.013 12.192 12.592 20.985 3.076 10.493 4.197 17.946 4.197 29.38 0 11.435-3.413 44.845-6.296 54.563-2.212 7.454-4.082 12.419-8.395 18.888-4.197 6.296-13.223 12.908-16.788 14.69-5.184 2.592-9.034 3.36-14.69 2.099-5.769-1.286-9.314-5.576-12.592-10.493-4.197-6.296-5.302-10.493-6.296-16.789-.994-6.296-.6-11.535 0-18.887.954-11.695 2.366-18.324 6.296-29.38 3.682-10.36 8.753-18.028 14.69-27.282 5.046-7.865 6.637-9.587 12.592-16.789 5.552-6.713 8.578-10.58 14.69-16.788 6.923-7.033 11.113-10.71 18.887-16.789 9.312-7.28 14.52-11.689 25.183-16.789 9.352-4.472 13.02-5.911 23.085-8.395 6.296-1.553 17.314-3.964 27.282-4.196 11.587-.27 18.332.694 29.38 4.197 10.481 3.323 15.906 6.688 25.183 12.59 6.914 4.4 10.403 7.456 16.789 12.593 5.887 4.736 9.104 7.503 14.69 12.592 8.567 7.805 13.774 11.912 20.986 20.985 6.649 8.365 9.515 11.637 14.69 20.986 3.55 6.413 6.342 11.85 8.394 18.888 1.623 5.563 3.466 10.977 3.382 16.772-.108 7.555-1.283 12.607-5.48 18.903-3.279 4.917-6.847 7.008-12.592 8.394-7.345 1.773-12.308-.481-18.887-4.197-6.056-3.419-11.012-7.932-14.732-13.808-4.577-7.229-6.254-13.474-6.254-21.868 0-9.868 1.465-15.7 4.197-25.182 2.732-9.483 5.61-15.332 10.493-23.085 5.593-8.881 9.109-13.833 16.789-20.986 7.32-6.819 12.226-9.858 20.986-14.69 7.067-3.9 11.331-5.555 18.887-8.395"/><path stroke="#35353B" stroke-linecap="round" stroke-width="4" d="M255.929 149.603s2.099 10.492-6.296 46.169c-3.697 15.714-5.641 19.882-10.493 31.478-3.384 8.09-4.951 12.374-7.843 17.834-3.891 7.349-5.456 9.461-11.044 17.842-9.97 14.956-21.952 27.149-37.774 35.676-12.784 6.891-21.155 8.479-35.677 8.395-12.722-.074-20.141-2.621-31.479-8.395-12.436-6.333-18.408-12.312-27.281-23.084-8.402-10.2-11.876-17.113-16.789-29.38-5.32-13.287-6.33-19.414-8.394-33.578-2.13-14.62-2.696-28.444-2.198-43.21"/><path stroke="#35353B" stroke-linecap="round" stroke-linejoin="round" stroke-width="4" d="M117.423 216.758c1.595 8.565 8.088 14.247 16.789 14.69a17.968 17.968 0 0 0 18.887-16.788m0 0v-20.986m0 20.986c1.092 9.808 9.019 16.854 18.887 16.788 7.732-.051 13.355-3.565 16.789-10.492"/><ellipse cx="171.986" cy="117.187" fill="#35353B" rx="8.394" ry="14.69"/><ellipse cx="133.762" cy="117.187" fill="#35353B" rx="8.394" ry="14.69"/></svg>