<svg width="482" height="492" viewBox="0 0 482 492" fill="none" xmlns="http://www.w3.org/2000/svg">
<path d="M245.958 308.051C245.958 308.051 202.314 301.588 202.106 264.691C202.059 256.362 205.385 251.255 212.075 247.863C219.208 244.246 225.436 242.611 236.556 241.344C254.259 239.326 269.124 246.149 276.864 251.197C284.604 256.244 287.992 263.38 287.041 271.291C284.567 291.855 245.958 308.051 245.958 308.051Z" fill="#35353B"/>
<path d="M2.95664 44.4239C15.5447 40.5701 23.3649 39.7435 36.4805 40.8807C50.1057 42.062 58.1278 44.1074 70.08 50.7546C80.6347 56.6245 86.0049 61.4178 93.6734 70.7479C102.973 82.0624 109.788 90.146 113.988 104.176C119 120.92 120.858 132.822 120.961 151.099C121.064 169.375 115.911 222.807 111.39 238.367C107.922 250.3 104.978 258.252 98.1426 268.631C91.4907 278.731 77.1228 289.381 71.4406 292.263C63.1792 296.452 57.0316 297.713 47.9795 295.749C38.7482 293.746 33.0434 286.92 27.7594 279.09C20.9941 269.065 19.1909 262.367 17.5454 252.313C15.8998 242.259 16.483 233.881 17.3753 222.125C18.7948 203.423 20.992 192.816 27.1736 175.109C32.9659 158.516 41.0018 146.216 50.4079 131.37C58.4015 118.753 60.9293 115.987 70.3824 104.423C79.1957 93.6421 83.998 87.4344 93.7112 77.4565C104.714 66.1537 111.377 60.2377 123.748 50.4522C138.566 38.7321 146.851 31.6383 163.849 23.3912C178.756 16.158 184.606 13.8254 200.67 9.76529C210.719 7.22556 228.308 3.27226 244.238 2.812C262.756 2.27697 273.545 3.75637 291.236 9.25601C308.018 14.4734 316.72 19.8022 331.6 29.154C342.691 36.1244 348.295 40.9768 358.548 49.1294C368.001 56.6457 373.168 61.0394 382.141 69.1228C395.905 81.5222 404.264 88.0396 415.873 102.477C426.576 115.787 431.186 120.99 439.542 135.886C445.274 146.105 449.785 154.771 453.129 166C455.773 174.878 458.767 183.515 458.686 192.777C458.581 204.854 456.748 212.94 450.096 223.041C444.901 230.93 439.216 234.304 430.046 236.571C418.322 239.47 410.369 235.913 399.82 230.033C390.111 224.621 382.148 217.453 376.149 208.096C368.768 196.582 366.031 186.615 365.956 173.199C365.867 157.425 368.156 148.092 372.438 132.911C376.719 117.729 381.267 108.355 389.001 95.9183C397.861 81.673 403.436 73.7275 415.646 62.2244C427.285 51.2599 435.1 46.3584 449.057 38.5554C460.318 32.2596 467.119 29.5747 479.17 24.9683" stroke="#35353B" stroke-width="4" stroke-linecap="round"/>
<path d="M409.92 236.685C409.92 236.685 413.369 253.437 400.273 310.535C394.505 335.685 391.435 342.365 383.785 360.944C378.449 373.904 375.982 380.766 371.41 389.52C365.256 401.301 362.774 404.69 353.918 418.137C338.117 442.131 319.075 461.727 293.862 475.5C273.491 486.628 260.127 489.242 236.915 489.238C216.579 489.235 204.698 485.231 186.525 476.104C166.59 466.093 156.991 456.591 142.712 439.453C129.191 423.225 123.575 412.208 115.613 392.644C106.988 371.455 105.32 361.671 101.893 339.051C98.3568 315.702 97.3286 293.612 97.9912 270.006" stroke="#35353B" stroke-width="4" stroke-linecap="round"/>
<path d="M189.143 345.269C191.769 358.944 202.199 367.967 216.109 368.598C231.867 369.312 245.186 357.338 246.147 341.594M246.147 341.594C246.073 328.494 245.958 308.051 245.958 308.051M246.147 341.594C247.98 357.261 260.714 368.451 276.486 368.258C288.843 368.106 297.8 362.438 303.226 351.335" stroke="#35353B" stroke-width="4" stroke-linecap="round" stroke-linejoin="round"/>
<ellipse cx="275.457" cy="185.629" rx="13.4173" ry="23.4803" transform="rotate(-0.322781 275.457 185.629)" fill="#35353B"/>
<ellipse cx="214.362" cy="185.973" rx="13.4173" ry="23.4803" transform="rotate(-0.322781 214.362 185.973)" fill="#35353B"/>
</svg>
