<svg width="136" height="145" viewBox="0 0 136 145" fill="none" xmlns="http://www.w3.org/2000/svg">
<g clip-path="url(#clip0_287_2410)">
<path d="M51.4432 28.936C59.1158 27.9969 66.2613 28.9423 73.2522 31.4552C73.2522 31.4552 76.8697 24.9692 80.6994 20.1737C84.5292 15.3783 88.7223 10.1702 89.231 10.469C89.7396 10.7679 99.6831 32.877 102.839 48.2149C105.999 63.5755 106.16 82.2327 105.231 88.3256C104.302 94.4184 100.126 111.287 92.0371 122.152C83.9478 133.017 76.4391 138.087 63.6405 138.386C50.3234 138.696 41.7761 132.683 34.0946 122.216C31.9078 119.237 30.8002 116.896 29.4826 113.98C28.165 111.065 25.1042 101.323 23.3593 92.9508C20.9148 81.223 20.7123 74.3937 20.4076 62.4062C20.1025 50.3995 21.9203 35.9846 21.8083 31.655C21.6962 27.3254 22.1593 22.9175 22.7519 18.6167C23.0613 16.3716 23.8249 12.4415 25.5892 10.8245C25.9825 10.4641 32.8586 16.924 36.5602 21.6401C39.2435 25.0588 42.58 30.9713 42.58 30.9713C45.3665 29.816 48.468 29.3002 51.4432 28.936Z" stroke="#161C22" stroke-width="2" stroke-linecap="round"/>
<path d="M95.1533 81.7272L117.409 73.1308" stroke="#161C22" stroke-width="2" stroke-linecap="round"/>
<path d="M95.8144 87.326L110.746 86.8584" stroke="#161C22" stroke-width="2" stroke-linecap="round"/>
<path d="M29.6298 85.8252L8.82301 84.37" stroke="#161C22" stroke-width="2" stroke-linecap="round"/>
<path d="M30.3672 91.6952L15.8021 95.0759" stroke="#161C22" stroke-width="2" stroke-linecap="round"/>
<path d="M54.4047 86.0368C55.7437 87.3437 59.4855 88.3693 61.4668 87.909C63.448 87.4487 64.2934 86.5405 65.3446 85.4354C66.3959 84.3304 66.8484 82.8385 68.195 80.8924C68.7494 80.091 69.6096 83.5244 71.1648 84.6761C72.7199 85.8278 74.554 86.2015 76.0063 85.6114C77.4586 85.0214 78.1634 83.8601 78.7662 82.956" stroke="#161C22" stroke-width="2" stroke-linecap="round"/>
<ellipse cx="4.02443" cy="4.08984" rx="4.02443" ry="4.08984" transform="matrix(0.991596 -0.129373 0.124675 0.992198 81.3936 65.5664)" fill="#161C22"/>
<ellipse cx="4.02443" cy="4.08984" rx="4.02443" ry="4.08984" transform="matrix(0.991596 -0.129373 0.124675 0.992198 41.4873 70.7725)" fill="#161C22"/>
<path d="M114.382 85.5582C114.596 84.9197 114.798 84.5002 115.364 84.1503C115.986 83.7659 116.567 83.6413 117.218 83.9708C117.939 84.3349 118.09 85.0099 118.183 85.8235C118.29 86.7549 118.1 87.4365 117.457 88.1076C116.994 88.5915 116.606 88.9345 115.944 88.8947C115.168 88.8481 114.75 88.3116 114.414 87.5976C114.075 86.8795 114.13 86.3122 114.382 85.5582Z" fill="#161C22"/>
<path d="M126.196 82.3656C126.506 81.8824 126.759 81.5773 127.289 81.4017C127.871 81.2088 128.363 81.2216 128.815 81.6224C129.313 82.0654 129.289 82.6513 129.187 83.3396C129.071 84.1275 128.771 84.6509 128.11 85.0757C127.634 85.3819 127.249 85.5873 126.726 85.4229C126.114 85.2303 125.895 84.7056 125.78 84.0509C125.664 83.3924 125.831 82.9363 126.196 82.3656Z" fill="#161C22"/>
<path d="M120.309 79.5976C120.651 79.3567 120.914 79.2955 121.33 79.2911C122.003 79.2839 122.533 79.4668 122.885 80.052C123.172 80.5295 123.07 80.9231 123.013 81.4802L123.013 81.4822C122.952 82.0846 122.912 82.4825 122.543 82.9581C122.1 83.5294 121.627 83.8529 120.914 83.8057C120.328 83.767 119.909 83.5774 119.593 83.0726C119.237 82.5038 119.483 82.0078 119.608 81.3454C119.745 80.6212 119.714 80.0172 120.309 79.5976Z" fill="#161C22"/>
<path d="M106.52 110.28C107.475 108.593 107.942 107.597 108.631 105.781C109.133 104.461 109.3 103.679 109.728 102.333C110.19 100.881 110.448 100.067 110.91 98.6153C111.105 98.0032 111.252 97.6712 111.409 97.0478C111.875 95.1901 111.62 94.0626 111.704 92.1471C111.786 90.3105 111.541 89.2542 111.841 87.4413C112.16 85.5197 112.077 84.1476 113.351 82.6941C114.13 81.8053 115.835 80.9905 115.835 80.9905C115.835 80.9905 116.957 78.5727 118.263 77.6349C119.207 76.9569 119.814 76.8139 120.943 76.6891C122.403 76.5278 123.751 76.9264 124.724 78.0861C124.982 78.3938 125.272 78.9598 125.272 78.9598C125.272 78.9598 126.946 78.4212 128.001 78.6239C129.471 78.906 130.253 79.6471 131.117 80.8901C131.763 81.8179 132.012 82.4772 132.148 83.6058C132.237 84.3453 132.076 85.5121 132.076 85.5121C132.076 85.5121 133.029 86.4416 133.332 87.2135C133.922 88.7178 132.708 91.3131 132.708 91.3131C132.708 91.3131 131.863 93.2717 131.214 94.4821C130.555 95.7138 130.227 96.3249 129.398 97.4454C128.515 98.6392 127.929 99.2662 127.276 100.605C126.577 102.037 126.477 102.966 126.037 104.501C125.489 106.411 125.355 107.53 124.806 109.44C124.38 110.922 124.107 111.716 123.888 113.244C123.738 114.286 123.443 114.848 123.53 115.897" stroke="#161C22" stroke-width="2" stroke-linecap="round"/>
<path d="M120.381 86.8777C121.13 86.4756 121.603 86.2215 122.453 86.2056C123.115 86.1931 123.56 86.1867 124.113 86.5584C124.674 86.936 124.798 87.3862 125.09 88.0036C125.537 88.9476 125.554 89.5829 125.645 90.6268C125.737 91.696 125.747 92.3212 125.537 93.3731C125.389 94.1194 125.482 94.6956 124.948 95.228C124.206 95.9672 123.331 95.5297 122.298 95.4268C120.576 95.255 119.476 94.9122 118.192 93.7294C117.574 93.1593 116.938 92.8696 116.867 92.0229C116.817 91.4268 117.331 90.5655 117.331 90.5655C117.331 90.5655 118.738 87.7596 120.369 86.884L120.381 86.8777Z" fill="#161C22"/>
<path d="M127.685 88.1697C128.388 87.5403 129.184 87.3953 130.048 87.7624C130.454 87.9347 130.756 88.0505 130.945 88.4545C131.174 88.9427 130.919 89.3123 130.752 89.8259C130.523 90.5285 130.266 90.8988 129.757 91.4274C129.218 91.9872 128.864 92.6056 128.1 92.5134C127.517 92.443 127.163 92.1407 126.88 91.6157C126.553 91.0089 126.759 90.5185 126.909 89.8437C127.067 89.1389 127.152 88.6466 127.685 88.1697Z" fill="#161C22"/>
</g>
<defs>
<clipPath id="clip0_287_2410">
<rect width="136" height="144.805" fill="white"/>
</clipPath>
</defs>
</svg>
