<svg width="204" height="179" viewBox="0 0 204 179" fill="none" xmlns="http://www.w3.org/2000/svg">
<g clip-path="url(#clip0_287_2400)">
<path d="M74.6003 123.091C72.1102 119.318 69.7868 117.206 65.4232 116.046C59.8364 114.56 55.2864 116.113 50.7363 117.665C48.0372 118.586 44.9289 120.495 43.4314 123.55C42.4279 125.597 42.2875 127.617 43.7292 129.385C45.1572 131.136 47.7994 131.388 47.7994 131.388C47.7994 131.388 41.4927 135.236 39.7361 137.532C37.9795 139.827 37.3842 142.035 38.7764 144.644C40.137 147.193 44.8816 147.648 44.8816 147.648C44.8816 147.648 44.2563 152.498 45.6978 155.002C47.2613 157.719 50.2864 158.525 52.0622 158.767C55.488 159.234 57.6158 158.446 60.9223 157.44C71.2098 154.308 85.4097 144.843 85.4097 144.843C85.4097 144.843 90.4408 147.562 93.7899 147.072C96.9476 146.609 100.855 142.965 100.855 142.965C100.855 142.965 105.999 146.386 109.754 146.713C113.819 147.067 116.639 146.979 120.13 144.868C123.124 143.058 124.544 140.829 126.158 137.723C127.521 135.101 128.376 129.334 128.376 129.334C128.376 129.334 132.661 129.163 135.46 127.764C137.768 126.611 139.127 125.942 141.008 124.175C143.289 122.031 144.053 120.314 145.52 117.547C148.368 112.175 149.714 102.547 149.714 102.547" stroke="#161C22" stroke-width="2" stroke-linecap="round"/>
<path d="M142.06 87.5282C145.603 92.1269 149.74 100.284 149.74 100.284C149.74 100.284 153.566 96.7724 156.146 94.6807C161.609 90.2519 166.278 87.8065 170.971 84.4965C174.395 82.0815 176.34 79.7818 177.078 75.5787C177.631 72.4273 177.475 70.256 175.957 67.4188C173.842 63.4648 166.38 61.2905 166.38 61.2905C166.38 61.2905 164.485 54.5215 160.266 53.1259C156.13 51.7578 149.39 56.6709 149.39 56.6709C149.39 56.6709 142.419 51.9139 137.8 53.1043C133.407 54.236 130.384 59.3366 129.161 62.6817C127.024 68.5273 129.512 74.1572 130.655 76.0439C133.945 81.4782 138.193 82.5091 142.06 87.5282Z" stroke="#161C22" stroke-width="2"/>
<path d="M129.687 61.6099C124.933 55.428 124.448 53.7271 117.737 46.4601C111.025 39.193 104.353 34.5193 96.9607 32.6975C89.5687 30.8758 83.8081 31.3044 77.7212 35.7875C71.6343 40.2706 64.4129 45.9865 60.816 60.2465C57.219 74.5065 57.6864 81.1403 59.053 90.156C59.7965 95.061 61.6559 105.384 64.9232 114.875" stroke="#161C22" stroke-width="2" stroke-linecap="round"/>
<ellipse cx="81.0237" cy="90.929" rx="3.8286" ry="3.8806" transform="rotate(161.158 81.0237 90.929)" fill="#161C22"/>
<ellipse cx="114.261" cy="81.637" rx="3.8286" ry="3.8806" transform="rotate(161.158 114.261 81.637)" fill="#161C22"/>
<path d="M106.184 63.8926C106.184 63.8926 97.8602 61.3812 92.7381 62.4263C87.0434 63.5883 80.0264 70.2237 80.0264 70.2237" stroke="#161C22" stroke-width="2" stroke-linecap="round"/>
<path d="M91.3718 61.9789C91.3718 61.9789 88.8879 54.8241 85.7971 52.4396C83.3318 50.5376 81.6571 49.3698 79.0083 50.6699C76.6413 51.8317 75.5051 53.9475 75.6596 56.7162C75.7781 58.8397 76.7857 59.9384 78.1007 61.604C79.7004 63.6303 83.3117 65.5466 83.3117 65.5466M87.2168 63.3968L83.141 58.2495" stroke="#161C22" stroke-width="2" stroke-linecap="round"/>
<path d="M90.272 79.5726C90.9241 79.3513 99.3736 76.4677 99.6047 74.6319C99.8359 72.7962 95.8782 71.5902 92.8853 72.5326C90.2845 73.3515 87.9488 75.6583 88.8508 78.3016C89.0039 78.7503 89.6198 79.7939 90.272 79.5726Z" fill="#161C22"/>
</g>
<defs>
<clipPath id="clip0_287_2400">
<rect width="170.373" height="130" fill="white" transform="translate(203.227 123.034) rotate(161.158)"/>
</clipPath>
</defs>
</svg>
