<svg width="191" height="185" viewBox="0 0 191 185" fill="none" xmlns="http://www.w3.org/2000/svg">
<path d="M88.6239 107.678C88.6239 107.678 81.737 99.7814 86.6998 93.934C87.8201 92.6141 89.5217 93.0128 91.021 93.3708C92.6196 93.7524 94.2928 94.6167 96.1932 95.9011C99.2185 97.9459 102.449 102.289 102.969 104.118C103.489 105.947 102.475 106.033 101.256 107.154C98.0872 110.067 88.6239 107.678 88.6239 107.678Z" fill="#35353B"/>
<path d="M74.0543 102.204C72.6514 104.64 74.7988 111.18 77.23 112.501C80.2863 114.162 84.8079 111.503 87.0237 109.215M87.0237 109.215C88.7356 107.198 91.4073 104.05 91.4073 104.05M87.0237 109.215C85.2394 111.853 86.0612 118.938 88.4643 120.95C90.347 122.526 95.4893 123.197 97.7677 122.198" stroke="#35353B" stroke-width="2" stroke-linecap="round" stroke-linejoin="round"/>
<path d="M153.661 55.0938C148.318 48.894 141.743 45.7007 138.956 45.1575C136.17 44.6143 135.089 50.1825 135.089 50.1825C135.089 50.1825 135.482 98.802 136.165 101.247C136.448 111.704 141.769 113.236 147.594 113.876C153.419 114.517 157.176 115.167 163.29 113.469C167.342 112.344 169.107 110.174 170.484 106.203C173.927 96.2767 171.986 87.1446 168.226 77.3267C164.956 68.7892 159.708 62.1106 153.661 55.0938Z" fill="#35353B"/>
<path d="M54.4931 74.7531C54.4931 74.7531 47.0256 88.7001 45.1047 98.477C42.8991 109.704 40.6982 115.148 44.824 127.342C46.8823 133.425 48.8302 137.746 53.4423 142.215C57.3534 146.004 60.3367 147.62 65.5859 149.07C73.1387 151.156 77.9074 151.31 85.478 149.29C93.5062 147.147 98.6373 143.707 106.716 138.26C114.795 132.812 117.617 130 123.499 122.713C130.158 114.462 133.359 109.421 138.298 100.041" stroke="#35353B" stroke-width="2"/>
<path d="M106.395 35.9949C106.395 35.9949 115.502 37.5641 120.994 40.2735C128.235 43.8458 136.754 53.1318 136.754 53.1318" stroke="#35353B" stroke-width="2"/>
<path d="M99.9692 47.3797C104.805 41.6629 110.717 35.4318 110.582 30.3518C110.481 26.5478 106.983 24.3168 103.947 22.6032C98.1236 19.3161 92.5349 16.9061 85.8662 17.4012C76.4649 18.0992 72.1654 18.735 63.7342 22.9226C57.45 26.0439 53.0422 27.6806 47.1333 33.5678C42.4954 38.1886 39.4894 41.9063 37.4895 48.1403C36.2332 52.0563 36.1566 53.9657 38.1876 57.5418C40.6971 61.9606 43.391 65.5435 47.7606 68.9503C52.8887 72.9485 56.5761 78.7565 62.6095 76.3315C78.1435 70.0879 87.9363 61.6044 99.9692 47.3797Z" fill="#35353B"/>
<circle cx="115.272" cy="100.053" r="4.35772" transform="rotate(29.4438 115.272 100.053)" fill="#35353B"/>
<circle cx="84.2519" cy="80.5415" r="4.35772" transform="rotate(29.4438 84.2519 80.5415)" fill="#35353B"/>
</svg>
