<svg width="81" height="96" viewBox="0 0 81 96" fill="none" xmlns="http://www.w3.org/2000/svg">
<path d="M36.4947 16.2149C42.0126 16.2587 46.9833 17.5878 51.6998 20.0123C51.6998 20.0123 54.8595 15.7551 58.0133 12.7143C61.1671 9.67346 64.6163 6.37409 64.9487 6.63264C65.2811 6.89119 70.2779 23.4597 71.095 34.6082C71.9133 45.7733 70.3043 58.9949 69.0842 63.222C67.864 67.4491 63.3502 79.0043 56.6207 85.9479C49.8912 92.8915 44.1077 95.7872 35.0205 94.8165C25.5652 93.8066 20.0702 88.7605 15.5994 80.6423C14.3266 78.3311 13.7588 76.5716 13.0954 74.3862C12.432 72.2008 11.1651 65.0221 10.7031 58.9348C10.0558 50.4074 10.5432 45.5545 11.4347 37.0409C12.3275 28.5136 14.9455 18.4777 15.2661 15.4026C15.5867 12.3275 16.3216 9.25006 17.1383 6.26041C17.5646 4.69977 18.468 1.98835 19.8663 1.00668C20.178 0.787838 24.4487 5.99562 26.6334 9.67585C28.2171 12.3436 30.0328 16.837 30.0328 16.837C32.1119 16.2765 34.355 16.1979 36.4947 16.2149Z" stroke="#161C22" stroke-width="2" stroke-linecap="round"/>
<path d="M62.5599 57.6204L79.1075 53.5907" stroke="#161C22" stroke-width="2" stroke-linecap="round"/>
<path d="M62.5112 61.6442L73.1236 62.6921" stroke="#161C22" stroke-width="2" stroke-linecap="round"/>
<path d="M15.7995 54.4702L1.20557 51.5186" stroke="#161C22" stroke-width="2" stroke-linecap="round"/>
<path d="M15.7802 58.692L5.15787 59.74" stroke="#161C22" stroke-width="2" stroke-linecap="round"/>
<path d="M33.3176 56.9069C34.1448 57.9556 36.6987 59.0271 38.1437 58.8843C39.5886 58.7414 40.2709 58.1767 41.1171 57.4915C41.9633 56.8064 42.4214 55.7921 43.5543 54.5389C44.0208 54.0229 44.3126 56.5326 45.3071 57.4915C46.3016 58.4504 47.5653 58.8843 48.6478 58.6007C49.7304 58.3172 50.3365 57.5603 50.8467 56.976" stroke="#161C22" stroke-width="2" stroke-linecap="round"/>
<ellipse cx="2.87289" cy="2.91958" rx="2.87289" ry="2.91958" transform="matrix(1 1.47759e-08 -0.00473662 0.999989 54.3125 44.9092)" fill="#161C22"/>
<ellipse cx="2.87289" cy="2.91958" rx="2.87289" ry="2.91958" transform="matrix(1 1.47759e-08 -0.00473662 0.999989 25.583 44.9092)" fill="#161C22"/>
</svg>
