<svg xmlns="http://www.w3.org/2000/svg" width="95" height="97" fill="none"><path fill="#35353B" d="M48.155 60.612s-8.514-1.31-8.514-8.514c0-1.626.655-2.62 1.964-3.274 1.397-.699 2.615-1.011 4.788-1.246 3.458-.375 6.353.974 7.859 1.968 1.505.994 2.159 2.39 1.964 3.934-.505 4.013-8.061 7.132-8.061 7.132Z"/><path stroke="#35353B" stroke-linecap="round" stroke-width="2" d="M1 8.872c2.462-.738 3.99-.89 6.55-.654 2.658.245 4.222.653 6.549 1.964 2.054 1.158 3.097 2.1 4.584 3.93 1.803 2.22 3.125 3.805 3.93 6.549.96 3.275 1.31 5.6 1.31 9.169 0 3.569-1.065 13.995-1.965 17.028-.69 2.326-1.274 3.876-2.62 5.895-1.31 1.964-4.127 4.028-5.24 4.584-1.617.809-2.819 1.049-4.584.655-1.8-.401-2.906-1.74-3.93-3.275-1.31-1.965-1.654-3.274-1.964-5.24-.31-1.964-.187-3.599 0-5.893.297-3.65.738-5.719 1.965-9.17 1.149-3.233 2.731-5.625 4.584-8.514 1.575-2.454 2.071-2.991 3.93-5.239 1.732-2.095 2.677-3.302 4.584-5.24 2.16-2.194 3.468-3.342 5.895-5.239 2.905-2.272 4.53-3.648 7.859-5.24 2.918-1.395 4.063-1.844 7.204-2.619 1.965-.485 5.403-1.237 8.514-1.31 3.616-.084 5.721.217 9.169 1.31 3.27 1.037 4.964 2.087 7.86 3.93 2.157 1.373 3.246 2.326 5.239 3.93a83.744 83.744 0 0 1 4.584 3.929c2.674 2.436 4.299 3.718 6.55 6.55 2.074 2.61 2.969 3.63 4.584 6.548 1.108 2.002 1.979 3.699 2.62 5.895.506 1.736 1.081 3.426 1.055 5.234-.034 2.358-.4 3.935-1.71 5.9-1.023 1.534-2.137 2.187-3.93 2.62-2.292.552-3.841-.151-5.894-1.31-1.89-1.068-3.437-2.476-4.598-4.31-1.428-2.256-1.952-4.205-1.952-6.825 0-3.08.457-4.899 1.31-7.859.853-2.959 1.751-4.784 3.275-7.204 1.745-2.771 2.843-4.317 5.24-6.55 2.284-2.127 3.815-3.076 6.549-4.584C90.31 7 91.642 6.484 94 5.597"/><path stroke="#35353B" stroke-linecap="round" stroke-width="2" d="M80.247 46.86s.655 3.274-1.965 14.408c-1.154 4.904-1.76 6.205-3.274 9.824-1.057 2.524-1.546 3.861-2.448 5.565-1.215 2.294-1.703 2.953-3.447 5.569-3.111 4.667-6.85 8.472-11.788 11.133-3.99 2.15-6.602 2.646-11.134 2.62-3.97-.023-6.286-.818-9.824-2.62-3.881-1.976-5.745-3.842-8.514-7.204-2.622-3.183-3.707-5.34-5.24-9.169-1.66-4.147-1.976-6.059-2.62-10.479-.664-4.562-.84-8.877-.685-13.485"/><path stroke="#35353B" stroke-linecap="round" stroke-linejoin="round" stroke-width="2" d="M37.023 67.816c.497 2.672 2.524 4.446 5.239 4.584a5.608 5.608 0 0 0 5.894-5.24m0 0v-6.549m0 6.55c.341 3.06 2.815 5.26 5.895 5.24 2.413-.017 4.167-1.114 5.24-3.276"/><ellipse cx="54.05" cy="36.743" fill="#35353B" rx="2.62" ry="4.585"/><ellipse cx="42.121" cy="36.743" fill="#35353B" rx="2.62" ry="4.585"/></svg>