<svg width="25.000000" height="25.000000" viewBox="0 0 25 25" fill="none" xmlns="http://www.w3.org/2000/svg" xmlns:xlink="http://www.w3.org/1999/xlink">
	<desc>
			Created with Pixso.
	</desc>
	<defs>
		<clipPath id="clip78_739">
			<rect id="Icon arrow/25" width="25.000000" height="25.000000" fill="white" fill-opacity="0"/>
		</clipPath>
	</defs>
	<g clip-path="url(#clip78_739)">
		<path id="Vector" d="M4.22966 11.0215C4.07516 11.1895 3.99138 11.4141 3.99677 11.6455C4.00215 11.8779 4.09624 12.0986 4.25836 12.2588C4.42048 12.4189 4.63733 12.5049 4.86121 12.5C5.0851 12.4941 5.29767 12.3965 5.45217 12.2285L12.1557 4.93457L12.1557 22.125C12.1557 22.3564 12.2447 22.5791 12.403 22.7432C12.5614 22.9072 12.7761 23 13 23C13.2239 23 13.4387 22.9072 13.597 22.7432C13.7553 22.5791 13.8443 22.3564 13.8443 22.125L13.8443 4.93457L20.5479 12.2285C20.7024 12.3965 20.9149 12.4941 21.1388 12.5C21.3627 12.5049 21.5796 12.4189 21.7417 12.2588C21.9038 12.0986 21.9979 11.8779 22.0033 11.6455C22.0087 11.4141 21.9249 11.1895 21.7704 11.0215L13.8156 2.36719C13.642 2.17773 13.4118 2.05469 13.1621 2.01758C13.0545 1.99512 12.9438 1.99512 12.8362 2.01758C12.5872 2.05469 12.3576 2.17773 12.1844 2.36719L4.23135 11.0225L4.22966 11.0215Z" fill="#161C22" fill-opacity="1.000000" fill-rule="nonzero"/>
	</g>
</svg>
