<svg width="15" height="15" viewBox="0 0 15 15" fill="none" xmlns="http://www.w3.org/2000/svg">
<path d="M3.12947 6.58419C3.04367 6.6882 2.99715 6.82734 3.00014 6.97098C3.00313 7.11463 3.05538 7.25102 3.14541 7.35015C3.23544 7.44928 3.35587 7.50303 3.4802 7.49957C3.60453 7.49612 3.72258 7.43574 3.80838 7.33173L7.53114 2.81616V13.4583C7.53114 13.602 7.58054 13.7398 7.66847 13.8413C7.75639 13.9429 7.87565 14 8 14C8.12435 14 8.24361 13.9429 8.33154 13.8413C8.41946 13.7398 8.46886 13.602 8.46886 13.4583V2.81616L12.1916 7.33173C12.2774 7.43574 12.3955 7.49612 12.5198 7.49957C12.6441 7.50303 12.7646 7.44928 12.8546 7.35015C12.9446 7.25102 12.9969 7.11463 12.9999 6.97098C13.0029 6.82734 12.9563 6.6882 12.8705 6.58419L8.45292 1.22682C8.35653 1.10943 8.22866 1.03308 8.09002 1.01014C8.03026 0.996619 7.9688 0.996619 7.90904 1.01014C7.77074 1.03332 7.64323 1.10965 7.54708 1.22682L3.13041 6.58527L3.12947 6.58419Z" fill="white"/>
</svg>
