<svg width="25" height="25" viewBox="0 0 25 25" fill="none" xmlns="http://www.w3.org/2000/svg">
<path d="M4.22964 11.0211C4.07514 11.1891 3.99137 11.4139 3.99675 11.6459C4.00213 11.8779 4.09623 12.0982 4.25835 12.2584C4.42046 12.4185 4.63732 12.5053 4.8612 12.4997C5.08508 12.4942 5.29765 12.3966 5.45216 12.2286L12.1557 4.93461V22.1249C12.1557 22.3569 12.2447 22.5795 12.403 22.7436C12.5613 22.9077 12.7761 22.9999 13 22.9999C13.2239 22.9999 13.4387 22.9077 13.597 22.7436C13.7553 22.5795 13.8443 22.3569 13.8443 22.1249V4.93461L20.5478 12.2286C20.7023 12.3966 20.9149 12.4942 21.1388 12.4997C21.3627 12.5053 21.5795 12.4185 21.7417 12.2584C21.9038 12.0982 21.9979 11.8779 22.0033 11.6459C22.0086 11.4139 21.9249 11.1891 21.7704 11.0211L13.8156 2.36736C13.642 2.17774 13.4117 2.05442 13.1621 2.01736C13.0545 1.99552 12.9438 1.99552 12.8362 2.01736C12.5872 2.05479 12.3576 2.17809 12.1844 2.36736L4.23133 11.0229L4.22964 11.0211Z" fill="white"/>
</svg>
