<svg width="15" height="15" viewBox="0 0 15 15" fill="none" xmlns="http://www.w3.org/2000/svg">
<path d="M8.41581 3.1197C8.3118 3.0339 8.17266 2.98738 8.02902 2.99037C7.88537 2.99336 7.74898 3.04562 7.64985 3.13565C7.55072 3.22568 7.49697 3.3461 7.50043 3.47043C7.50388 3.59476 7.56426 3.71281 7.66827 3.79862L12.1838 7.52137L1.5417 7.52137C1.39803 7.52137 1.26025 7.57077 1.15866 7.6587C1.05707 7.74663 1 7.86588 1 7.99023C1 8.11458 1.05707 8.23384 1.15866 8.32177C1.26025 8.4097 1.39803 8.45909 1.5417 8.45909L12.1838 8.4591L7.66827 12.1819C7.56426 12.2677 7.50388 12.3857 7.50043 12.51C7.49697 12.6344 7.55072 12.7548 7.64985 12.8448C7.74898 12.9349 7.88537 12.9871 8.02902 12.9901C8.17266 12.9931 8.3118 12.9466 8.41581 12.8608L13.7732 8.44315C13.8906 8.34677 13.9669 8.21889 13.9899 8.08026C14.0034 8.0205 14.0034 7.95903 13.9899 7.89928C13.9667 7.76097 13.8904 7.63346 13.7732 7.53731L8.41473 3.12064L8.41581 3.1197Z" fill="#67666B"/>
</svg>
