<svg width="10" height="13" viewBox="0 0 10 13" fill="none" xmlns="http://www.w3.org/2000/svg">
<path d="M0.12947 5.58419C0.0436692 5.6882 -0.00285391 5.82734 0.000135666 5.97098C0.00312524 6.11463 0.0553825 6.25102 0.145412 6.35015C0.235441 6.44928 0.355867 6.50303 0.480198 6.49957C0.604529 6.49612 0.72258 6.43574 0.808381 6.33173L4.53114 1.81616V12.4583C4.53114 12.602 4.58054 12.7398 4.66847 12.8413C4.75639 12.9429 4.87565 13 5 13C5.12435 13 5.24361 12.9429 5.33154 12.8413C5.41946 12.7398 5.46886 12.602 5.46886 12.4583V1.81616L9.19162 6.33173C9.27742 6.43574 9.39547 6.49612 9.5198 6.49957C9.64413 6.50303 9.76456 6.44928 9.85459 6.35015C9.94462 6.25102 9.99688 6.11463 9.99987 5.97098C10.0029 5.82734 9.95633 5.6882 9.87053 5.58419L5.45292 0.226821C5.35653 0.109433 5.22866 0.0330831 5.09002 0.0101432C5.03026 -0.00338107 4.9688 -0.00338107 4.90904 0.0101432C4.77074 0.0333157 4.64323 0.109647 4.54708 0.226821L0.130408 5.58527L0.12947 5.58419Z" fill="#161C22"/>
</svg>
