<svg width="25.000000" height="25.000000" viewBox="0 0 25 25" fill="none" xmlns="http://www.w3.org/2000/svg" xmlns:xlink="http://www.w3.org/1999/xlink">
	<desc>
			Created with Pixso.
	</desc>
	<defs>
		<clipPath id="clip78_560">
			<rect id="Icon call" width="25.000000" height="25.000000" fill="white" fill-opacity="0"/>
		</clipPath>
	</defs>
	<g clip-path="url(#clip78_560)">
		<path id="Vector" d="M11.9332 8.49902C12.961 7.5 12.9111 6.64551 12.4986 5.67383L11.5525 3.44336C11.0773 2.32324 9.89153 1.75 8.78271 2.10449L7.6 2.48242L7.598 2.48242L7.6002 2.48242L7.59821 2.4834C6.42437 2.85938 5.52541 3.86523 5.23518 5.12695C4.54546 8.12793 4.65368 11.6816 7.00001 15.9902C9.34304 20.291 12.6295 22.9795 15.4224 23.8506C16.606 24.2197 17.8842 23.8936 18.7796 22.9951L19.6794 22.0918C20.5188 21.249 20.6409 19.8779 19.9632 18.8838L18.608 16.8926C18.0261 16.0381 16.9932 15.6738 16.045 15.9902L14.3591 16.4043C13.3439 15.6299 12.4944 14.6592 11.861 13.5498C11.1944 12.4033 10.7973 11.2393 10.6685 10.0557L11.9332 8.49902ZM8.05624 3.91113L8.05644 3.91211Q7.89407 3.96387 7.74597 4.04199Q7.44571 4.20215 7.20417 4.47168Q7.07411 4.61719 6.97334 4.78125Q6.78292 5.08984 6.69706 5.46289Q6.26698 7.33398 6.39568 9.16602Q6.42063 9.52148 6.46658 9.875Q6.80771 12.501 8.31724 15.2725Q9.11361 16.7344 10.093 17.9854Q11.0119 19.1602 12.0465 20.0918Q13.019 20.9678 14.0284 21.5723Q14.9746 22.1396 15.8695 22.4189Q16.1155 22.4951 16.363 22.501Q16.6 22.5059 16.8383 22.4443Q17.0068 22.4014 17.1617 22.3301Q17.4653 22.1885 17.717 21.9355L18.6167 21.0332Q18.7018 20.9473 18.7615 20.8467Q18.8744 20.6562 18.8961 20.4121Q18.9161 20.1865 18.8518 19.9883Q18.8075 19.8516 18.7232 19.7275L17.3681 17.7373Q17.251 17.5654 17.0886 17.4727Q17.0299 17.4395 16.9653 17.417Q16.8518 17.377 16.7381 17.377Q16.6285 17.376 16.5188 17.4131L16.4618 17.4316L14.02 18.0322L13.449 17.5967Q12.4998 16.8721 11.7426 15.9844Q11.0799 15.207 10.5643 14.3037Q9.40495 12.3105 9.17734 10.2178L9.10968 9.59473L10.8246 7.48438L10.8879 7.42285Q11.2408 7.08008 11.2705 6.86816Q11.2967 6.68066 11.1176 6.25977L10.1717 4.0293Q10.0761 3.80371 9.90784 3.66895Q9.83667 3.6123 9.7525 3.57129Q9.61765 3.50586 9.48009 3.5Q9.36062 3.49414 9.23911 3.5332L8.05624 3.91113Z" fill="#000000" fill-opacity="1.000000" fill-rule="evenodd"/>
	</g>
</svg>
