<svg width="25.000000" height="25.000000" viewBox="0 0 25 25" fill="none" xmlns="http://www.w3.org/2000/svg" xmlns:xlink="http://www.w3.org/1999/xlink">
	<desc>
			Created with Pixso.
	</desc>
	<defs>
		<clipPath id="clip78_582">
			<rect id="Icon cart" width="25.000000" height="25.000000" fill="white" fill-opacity="0"/>
		</clipPath>
	</defs>
	<g clip-path="url(#clip78_582)">
		<path id="Vector" d="M18.2923 20.7031C18.5854 20.4102 18.75 20.0127 18.75 19.5986C18.75 19.1836 18.5854 18.7861 18.2923 18.4932C17.9993 18.2002 17.6019 18.0361 17.1875 18.0361C16.7731 18.0361 16.3757 18.2002 16.0826 18.4932C15.7896 18.7861 15.625 19.1836 15.625 19.5986C15.625 20.0127 15.7896 20.4102 16.0826 20.7031C16.3757 20.9961 16.7731 21.1611 17.1875 21.1611C17.6019 21.1611 17.9993 20.9961 18.2923 20.7031ZM9.95901 20.7031C10.252 20.4102 10.4167 20.0127 10.4167 19.5986C10.4167 19.1836 10.252 18.7861 9.95901 18.4932C9.66599 18.2002 9.26855 18.0361 8.85416 18.0361C8.43975 18.0361 8.04233 18.2002 7.7493 18.4932C7.45628 18.7861 7.29166 19.1836 7.29166 19.5986C7.29166 20.0127 7.45628 20.4102 7.7493 20.7031C8.04233 20.9961 8.43975 21.1611 8.85416 21.1611C9.26855 21.1611 9.66599 20.9961 9.95901 20.7031ZM4.86457 5.625L18.7125 5.625C20.1479 5.625 21.1844 6.94824 20.7906 8.2793L19.0677 14.1123C18.8021 15.0088 17.9542 15.625 16.9896 15.625L8.44999 15.625C7.48436 15.625 6.63541 15.0078 6.37082 14.1123L4.86457 5.625L3.82514 2.99121L2.25 2.99121" stroke="#161C22" stroke-opacity="1.000000" stroke-width="1.500000" stroke-linejoin="round"/>
	</g>
</svg>
