<svg width="24" height="17" viewBox="0 0 24 17" fill="none" xmlns="http://www.w3.org/2000/svg">
<path d="M23.3701 7.99609C23.3359 7.91895 22.5088 6.08398 20.6699 4.24512C18.2197 1.79492 15.125 0.5 11.7187 0.5C8.31249 0.5 5.21776 1.79492 2.76757 4.24512C0.928702 6.08398 0.0976469 7.92188 0.0673735 7.99609C0.0229527 8.09601 0 8.20413 0 8.31348C0 8.42282 0.0229527 8.53094 0.0673735 8.63086C0.101553 8.70801 0.928702 10.542 2.76757 12.3809C5.21776 14.8301 8.31249 16.125 11.7187 16.125C15.125 16.125 18.2197 14.8301 20.6699 12.3809C22.5088 10.542 23.3359 8.70801 23.3701 8.63086C23.4145 8.53094 23.4375 8.42282 23.4375 8.31348C23.4375 8.20413 23.4145 8.09601 23.3701 7.99609ZM11.7187 12.2188C10.9462 12.2188 10.1909 11.9897 9.54854 11.5604C8.90617 11.1312 8.40549 10.5211 8.10984 9.80736C7.81418 9.09358 7.73682 8.30817 7.88755 7.55043C8.03827 6.79269 8.41031 6.09666 8.9566 5.55036C9.5029 5.00407 10.1989 4.63203 10.9567 4.48131C11.7144 4.33058 12.4998 4.40794 13.2136 4.7036C13.9274 4.99925 14.5374 5.49992 14.9667 6.1423C15.3959 6.78468 15.625 7.53992 15.625 8.3125C15.625 9.3485 15.2134 10.3421 14.4809 11.0746C13.7483 11.8072 12.7547 12.2188 11.7187 12.2188Z" fill="#DCDEE3"/>
</svg>
