<svg width="21" height="21" viewBox="0 0 21 21" fill="none" xmlns="http://www.w3.org/2000/svg">
<path d="M9.5066 4.78322C10.5513 4.78322 11.3982 3.93632 11.3982 2.89161C11.3982 1.8469 10.5513 1 9.5066 1C8.46189 1 7.61499 1.8469 7.61499 2.89161C7.61499 3.93632 8.46189 4.78322 9.5066 4.78322Z" stroke="#67666B" stroke-width="1.5" stroke-linecap="round" stroke-linejoin="round"/>
<path d="M16.1272 8.56618C17.1719 8.56618 18.0188 7.71927 18.0188 6.67457C18.0188 5.62986 17.1719 4.78296 16.1272 4.78296C15.0825 4.78296 14.2356 5.62986 14.2356 6.67457C14.2356 7.71927 15.0825 8.56618 16.1272 8.56618Z" stroke="#67666B" stroke-width="1.5" stroke-linecap="round" stroke-linejoin="round"/>
<path d="M18.0188 16.1328C19.0635 16.1328 19.9104 15.2859 19.9104 14.2412C19.9104 13.1965 19.0635 12.3496 18.0188 12.3496C16.9741 12.3496 16.1272 13.1965 16.1272 14.2412C16.1272 15.2859 16.9741 16.1328 18.0188 16.1328Z" stroke="#67666B" stroke-width="1.5" stroke-linecap="round" stroke-linejoin="round"/>
<path d="M7.61485 8.56616C8.23588 8.56616 8.85082 8.68848 9.42457 8.92614C9.99832 9.16379 10.5196 9.51213 10.9588 9.95126C11.3979 10.3904 11.7462 10.9117 11.9839 11.4855C12.2216 12.0592 12.3439 12.6742 12.3439 13.2952V16.6055C12.3436 17.3966 12.06 18.1615 11.5445 18.7616C11.029 19.3617 10.3156 19.7573 9.5335 19.8768C8.75145 19.9963 7.95246 19.8317 7.28126 19.4129C6.61006 18.9941 6.11104 18.3488 5.87457 17.5939C5.47103 16.2918 4.6198 15.439 3.3209 15.0355C2.56632 14.7991 1.92127 14.3005 1.50246 13.6298C1.08365 12.9591 0.91876 12.1606 1.03762 11.3789C1.15648 10.5971 1.55124 9.88376 2.15047 9.36784C2.7497 8.85192 3.51381 8.56754 4.30454 8.56616H7.61485Z" stroke="#67666B" stroke-width="1.5" stroke-linecap="round" stroke-linejoin="round"/>
</svg>
