<svg width="21" height="21" viewBox="0 0 21 21" fill="none" xmlns="http://www.w3.org/2000/svg">
<path d="M10.5 14.6663C11.6051 14.6663 12.6649 14.2274 13.4463 13.446C14.2277 12.6646 14.6667 11.6047 14.6667 10.4997C14.6667 9.39461 14.2277 8.3348 13.4463 7.5534C12.6649 6.77199 11.6051 6.33301 10.5 6.33301C9.39493 6.33301 8.33512 6.77199 7.55372 7.5534C6.77232 8.3348 6.33333 9.39461 6.33333 10.4997C6.33333 11.6047 6.77232 12.6646 7.55372 13.446C8.33512 14.2274 9.39493 14.6663 10.5 14.6663Z" stroke="#161C22" stroke-width="1.5" stroke-linecap="round" stroke-linejoin="round"/>
<path d="M1.125 14.6667V6.33333C1.125 4.952 1.67373 3.62724 2.65049 2.65049C3.62724 1.67373 4.952 1.125 6.33333 1.125H14.6667C16.048 1.125 17.3728 1.67373 18.3495 2.65049C19.3263 3.62724 19.875 4.952 19.875 6.33333V14.6667C19.875 16.048 19.3263 17.3728 18.3495 18.3495C17.3728 19.3263 16.048 19.875 14.6667 19.875H6.33333C4.952 19.875 3.62724 19.3263 2.65049 18.3495C1.67373 17.3728 1.125 16.048 1.125 14.6667Z" stroke="#161C22" stroke-width="1.5"/>
<path d="M16.2292 4.78053L16.2392 4.76953" stroke="#161C22" stroke-width="1.5" stroke-linecap="round" stroke-linejoin="round"/>
</svg>
