<svg width="25.000000" height="25.000000" viewBox="0 0 25 25" fill="none" xmlns="http://www.w3.org/2000/svg" xmlns:xlink="http://www.w3.org/1999/xlink">
	<desc>
			Created with Pixso.
	</desc>
	<defs>
		<clipPath id="clip78_561">
			<rect id="Icon inst" width="25.000000" height="25.000000" fill="white" fill-opacity="0"/>
		</clipPath>
	</defs>
	<g clip-path="url(#clip78_561)">
		<path id="Vector" d="M15.4463 15.4463C16.2277 14.665 16.6666 13.6045 16.6666 12.5C16.6666 11.3945 16.2277 10.335 15.4463 9.55371C14.6649 8.77246 13.605 8.33301 12.5 8.33301C11.3949 8.33301 10.3351 8.77246 9.5537 9.55371C8.7723 10.335 8.33331 11.3945 8.33331 12.5C8.33331 13.6045 8.7723 14.665 9.5537 15.4463C10.3351 16.2275 11.3949 16.666 12.5 16.666C13.605 16.666 14.6649 16.2275 15.4463 15.4463Z" stroke="#161C22" stroke-opacity="1.000000" stroke-width="1.500000" stroke-linejoin="round"/>
		<path id="Vector" d="M3.125 8.33301C3.125 6.95215 3.67373 5.62695 4.65049 4.65039C5.62724 3.67383 6.952 3.125 8.33333 3.125L16.6667 3.125C18.048 3.125 19.3728 3.67383 20.3495 4.65039C21.3263 5.62695 21.875 6.95215 21.875 8.33301L21.875 16.667C21.875 18.0479 21.3263 19.373 20.3495 20.3496C19.3728 21.3262 18.048 21.875 16.6667 21.875L8.33333 21.875C6.952 21.875 5.62724 21.3262 4.65049 20.3496C3.67373 19.373 3.125 18.0479 3.125 16.667L3.125 8.33301Z" stroke="#161C22" stroke-opacity="1.000000" stroke-width="1.500000"/>
		<path id="Vector" d="M18.2292 6.78027L18.2392 6.76953" stroke="#161C22" stroke-opacity="1.000000" stroke-width="1.500000" stroke-linejoin="round" stroke-linecap="round"/>
	</g>
</svg>
