<svg width="92" height="52" viewBox="0 0 92 52" fill="none" xmlns="http://www.w3.org/2000/svg">
<path fill-rule="evenodd" clip-rule="evenodd" d="M22.9365 0.531424C21.6819 0.716096 19.5946 1.22032 18.6325 1.57111C16.2894 2.42585 13.3889 4.18678 10.8804 6.27787L9.70999 7.25325L9.06033 6.78683C8.10948 6.10408 6.76214 5.50542 5.58953 5.24473C4.29033 4.95587 1.57751 5.0252 0.781162 5.36762C-0.110088 5.75091 -0.273939 6.73885 0.472584 7.22773C0.779344 7.42858 0.924631 7.43542 1.64534 7.28255C2.13743 7.17821 3.01947 7.13358 3.83997 7.17152C5.37139 7.24237 6.41602 7.55258 7.53057 8.26727L8.21653 8.70733L7.3049 9.67309C3.85923 13.3236 1.62915 17.3382 0.73064 21.5078C0.351587 23.2665 0.383405 26.8905 0.791069 28.3862C1.37779 30.5393 2.51509 32.0662 4.09551 32.823C4.79179 33.1564 5.11222 33.224 5.99775 33.224C6.93352 33.2242 7.17817 33.166 8.01751 32.7438C8.54282 32.4796 8.99222 32.2831 9.01636 32.3071C9.04037 32.3312 9.12397 32.9396 9.20226 33.6592C9.94781 40.5204 12.7904 46.1358 17.0336 49.1296C18.7516 50.3419 20.2998 51.045 21.7793 51.2847C26.0679 51.9799 29.3499 51.0158 32.8455 48.0344C35.5292 45.7454 38.3517 41.4769 39.9673 37.2642C40.929 34.7565 41.9838 29.7951 41.9862 27.768L41.9869 27.1237L43.0134 27.0579C45.2148 26.9167 46.7214 25.5401 47.3612 23.0849C47.6677 21.9094 47.6308 19.7189 47.2807 18.2914C46.7468 16.1158 44.8641 12.7562 42.8742 10.4289C42.6165 10.1275 42.4056 9.8328 42.4056 9.77408C42.4056 9.55677 44.0534 8.49156 45.4062 7.83433C46.6385 7.23554 48.5038 6.60021 50.3262 6.15847C51.0592 5.98077 51.4031 5.52524 51.268 4.91069C51.2162 4.67483 51.0183 4.37996 50.8282 4.25541C50.5086 4.04619 50.3982 4.0473 49.3659 4.26894C46.8469 4.80984 43.6289 6.18846 41.8818 7.47516C41.4018 7.82861 40.9601 8.11775 40.9001 8.11775C40.8401 8.11775 40.4478 7.7671 40.0283 7.33861C37.9299 5.19522 34.8487 2.98809 32.5452 1.97853C31.8183 1.65996 30.4895 1.21013 29.5923 0.979014C28.1623 0.610647 27.6762 0.553185 25.658 0.51427C24.3915 0.489861 23.1668 0.497531 22.9365 0.531424ZM22.2387 2.75446C18.8945 3.37807 15.4813 5.11335 12.3056 7.80475L11.1649 8.77135L11.4406 9.17682C11.9789 9.96865 12.536 11.1784 12.8269 12.1865C13.7234 15.2958 12.9367 23.6737 11.2869 28.5849C10.9081 29.7125 10.9033 29.7702 11.0224 31.6535C11.2975 35.9965 12.0019 39.0627 13.4581 42.2562C15.0064 45.652 17.9314 48.6183 20.5395 49.4379C21.372 49.6996 21.8585 49.7526 23.425 49.7526C25.1263 49.7526 25.4287 49.7134 26.5414 49.3489C29.6805 48.3207 32.4431 45.9611 35.0306 42.0985C37.8547 37.8828 39.3648 33.4116 39.7473 28.1331L39.8686 26.4594L39.4972 26.1827C39.2929 26.0305 38.7093 25.4926 38.2 24.9876C37.1932 23.9886 36.322 22.4125 35.9682 20.9499C35.6572 19.6636 35.7536 17.2084 36.1793 15.5799C36.6256 13.8721 37.6835 11.6992 38.6554 10.4938L39.3811 9.59372L38.0671 8.3444C35.244 5.66011 32.1291 3.78452 29.2169 3.01515C27.4437 2.54677 24.0353 2.41943 22.2387 2.75446ZM8.54227 11.4C4.27805 16.1348 2.26402 20.9293 2.53798 25.6922C2.67154 28.014 3.05129 29.1527 4.05517 30.2411C5.01146 31.278 6.24282 31.4561 7.42171 30.7279C8.42545 30.108 9.09326 28.8584 9.74446 26.382C10.9171 21.9227 11.4742 15.7682 10.9354 13.2262C10.7241 12.2298 9.93539 10.4758 9.65877 10.3874C9.57141 10.3595 9.06898 10.8152 8.54227 11.4ZM40.1158 12.0205C37.8311 15.122 37.1997 19.2144 38.573 22.0196C39.4111 23.7316 41.1396 24.9948 42.6441 24.9948C43.5309 24.9948 44.0195 24.7717 44.6142 24.0948C45.287 23.3288 45.5213 22.3073 45.4447 20.4733C45.389 19.1389 45.3141 18.7535 44.8962 17.656C44.161 15.7242 43.0947 13.9952 41.2035 11.6681L40.7692 11.1334L40.1158 12.0205ZM22.1218 18.0194C21.408 18.8671 21.3209 21.0414 21.9615 22.0185C22.872 23.4073 24.2147 21.9974 24.0649 19.8097C23.9357 17.9207 22.961 17.0227 22.1218 18.0194ZM27.5138 17.9162C26.4897 19.039 26.7758 22.1515 27.94 22.551C28.2938 22.6724 28.3819 22.6383 28.7338 22.2446C29.1852 21.7397 29.4243 21.0121 29.4254 20.14C29.4279 18.24 28.356 16.993 27.5138 17.9162ZM76.8079 25.4046C75.6886 25.6782 74.5365 26.5665 73.9513 27.6073C73.5587 28.3054 70.1764 30.6704 68.0154 31.7581C65.6017 32.9728 64.0094 33.221 62.8729 32.5595C62.1582 32.1433 62.0208 31.5157 62.2209 29.5804C62.3649 28.186 62.3592 27.9027 62.1797 27.5579C61.9501 27.1167 61.4698 26.6404 61.0373 26.4249C59.443 25.6306 55.1968 26.7121 52.0677 28.7097C51.6631 28.9679 51.2934 29.1792 51.2459 29.1792C51.1983 29.1792 51.2017 28.7153 51.253 28.1483C51.3454 27.1286 51.3418 27.1127 50.9127 26.6837C50.674 26.4452 50.3169 26.2094 50.119 26.1598C49.3914 25.9773 49.337 26.1295 49.0083 29.2635C48.639 32.7842 48.6153 33.7588 48.8897 34.1503C49.141 34.5089 49.8061 34.7969 50.2401 34.735C50.5242 34.6944 50.5837 34.5722 50.7175 33.7545C50.8367 33.0258 50.9847 32.6727 51.3893 32.1504C52.478 30.7453 54.9046 29.148 57.0871 28.3998C57.9496 28.1043 59.7831 27.6454 60.1043 27.6448C60.1569 27.6447 60.1785 28.2998 60.1526 29.1006C60.0857 31.1536 60.322 31.904 61.3624 32.9438C62.5062 34.0868 63.3632 34.398 65.3637 34.3968C66.7221 34.3959 67.0407 34.3459 68.1299 33.9627C69.5027 33.4797 71.1778 32.521 72.38 31.5306L73.1758 30.8748L73.396 31.6659C73.8331 33.2364 74.5997 34.1711 76.051 34.9034C77.5005 35.6347 78.7824 35.8966 80.9948 35.9138C82.6186 35.9265 83.1323 35.8771 84.036 35.6215C87.0686 34.764 89.7067 32.6025 91.1085 29.8266C91.7252 28.6053 91.9734 27.645 91.6721 27.645C91.5756 27.645 90.7352 28.3884 89.8046 29.2971C87.2019 31.8384 85.1769 33.2101 82.8716 33.9938C81.633 34.4148 79.8399 34.6798 78.9957 34.5665C77.9903 34.4317 76.7055 33.7327 75.9796 32.9258C75.1234 31.974 75.1398 31.7525 76.0752 31.6427C77.187 31.5122 78.6766 30.7128 79.5132 29.798C80.7127 28.4863 80.7988 27.4098 79.7915 26.3177C78.9876 25.4459 77.9448 25.1268 76.8079 25.4046ZM23.139 25.7427C21.8468 26.091 20.932 26.8856 20.8145 27.7621C20.7556 28.2011 20.83 28.5189 21.1525 29.2055C21.6313 30.2248 23.003 32.0018 23.7486 32.5688C24.2511 32.9508 24.2624 32.9799 24.2603 33.8938C24.258 34.9112 23.9672 36.347 23.632 36.9947C23.0027 38.2109 21.1771 38.0489 20.497 36.7166C20.2448 36.2226 20.15 36.1532 19.727 36.1532C19.3605 36.1532 19.1869 36.2411 19.0049 36.5187C18.7729 36.8727 18.7777 36.9081 19.1588 37.6354C19.8402 38.9362 21.0916 39.6061 22.5593 39.4557C23.3609 39.3737 24.3933 38.8527 24.7429 38.354L24.9571 38.0482L25.4322 38.5665C26.3567 39.5751 28.0925 39.9803 29.2968 39.4686C30.0199 39.1613 30.7596 38.4619 31.0959 37.7676C31.3438 37.2558 31.3632 37.1056 31.2211 36.794C31.0492 36.4169 30.5637 36.2014 30.2001 36.3407C30.088 36.3837 29.837 36.6714 29.642 36.9799C29.1725 37.7232 28.6635 38.0392 27.9609 38.0235C27.1826 38.0062 26.6569 37.6223 26.2675 36.7868C25.9858 36.1821 25.9396 35.8656 25.9385 34.531L25.9371 32.9784L26.7057 32.5898C28.2613 31.8033 29.7286 29.78 29.7286 28.4219C29.7286 27.5657 29.3965 27.1459 28.2715 26.5796C26.4671 25.6715 24.5581 25.3601 23.139 25.7427ZM77.0052 27.284C76.1842 27.8416 74.9537 29.9531 75.2673 30.2664C75.5534 30.5524 78.4196 28.4226 78.6268 27.7699C78.747 27.3915 78.3358 26.9476 77.8654 26.9476C77.6648 26.9476 77.2778 27.0989 77.0052 27.284ZM49.4129 41.9651C47.7775 42.7706 47.815 45.3114 49.4725 46.0035C50.093 46.2626 51.2584 46.2464 51.8399 45.9707C52.3074 45.7489 52.3146 45.732 52.3146 44.8457C52.3146 43.9461 52.3144 43.9456 51.9308 43.9898C51.5891 44.029 51.5499 44.0863 51.5738 44.5115C51.6176 45.2919 51.425 45.4984 50.6538 45.4984C49.875 45.4984 49.3797 45.1856 49.1036 44.5195C48.8887 44.001 49.0854 43.1747 49.5165 42.7848C49.9149 42.4243 50.9108 42.3463 51.4641 42.6322C51.8173 42.8148 51.9595 42.8297 52.1153 42.7004C52.4128 42.4537 52.3617 42.3151 51.861 42.0099C51.2965 41.6659 50.0661 41.6433 49.4129 41.9651ZM55.9432 43.9641V46.1958H56.3619C56.7651 46.1958 56.7806 46.1725 56.7806 45.5682V44.9405H57.4019C57.9813 44.9405 58.0524 44.9829 58.4553 45.5682C58.8047 46.0756 58.9673 46.1958 59.3043 46.1958C59.7706 46.1958 59.7529 46.1092 59.1109 45.2508L58.7694 44.794L59.2404 44.3233C59.7674 43.7966 59.8521 43.2458 59.5082 42.5812C59.1931 41.9722 58.525 41.7325 57.1433 41.7325H55.9432V43.9641ZM63.9826 42.0485C63.2171 42.4872 62.8916 43.1408 62.9547 44.1127C63.0435 45.4778 63.862 46.1958 65.3292 46.1958C65.8885 46.1958 66.2123 46.1127 66.5514 45.882C67.3438 45.3429 67.5967 44.8791 67.5967 43.9641C67.5967 43.0491 67.3438 42.5854 66.5514 42.0463C65.9172 41.6149 64.7376 41.616 63.9826 42.0485ZM72.0509 41.9231C71.1373 42.3367 70.5992 43.4931 70.8636 44.4745C71.1799 45.6482 71.9529 46.1958 73.2937 46.1958C73.8408 46.1958 74.1742 46.1102 74.5193 45.8809C75.0417 45.534 75.6216 44.5255 75.6216 43.9641C75.6216 43.4559 75.0639 42.4278 74.6082 42.0958C74.1184 41.739 72.673 41.6415 72.0509 41.9231ZM78.9711 43.9549V46.1958H79.3849H79.7987L79.8385 44.7882L79.8783 43.3807L80.5603 44.5092C80.9641 45.1773 81.3344 45.6372 81.4675 45.6362C81.5998 45.6352 81.9421 45.204 82.2973 44.5911C82.6299 44.0174 82.9597 43.5122 83.03 43.4688C83.1044 43.4228 83.158 43.9775 83.158 44.7928V46.1958H83.5069H83.8558V43.9641C83.8558 41.7339 83.8557 41.7325 83.5375 41.7325C83.2833 41.7325 83.0672 41.9926 82.4655 43.0226C82.051 43.7322 81.6516 44.3928 81.5777 44.4904C81.4803 44.6196 81.2089 44.2766 80.5845 43.2351C79.8705 42.0445 79.6614 41.7947 79.3481 41.7581L78.9711 41.7139V43.9549ZM56.7806 43.3365V44.2431H57.4178C58.3779 44.2431 58.8676 43.9259 58.8719 43.3016C58.8757 42.7405 58.404 42.4299 57.5482 42.4299H56.7806V43.3365ZM64.3557 42.7051C64.1082 42.8558 63.8744 43.1222 63.8362 43.2973C63.6341 44.2211 63.7103 44.6346 64.1667 45.0907C64.5014 45.4251 64.692 45.4984 65.2274 45.4984C65.7837 45.4984 65.9503 45.4283 66.3546 45.0242C66.7436 44.6354 66.8291 44.4444 66.8291 43.9641C66.8291 43.4839 66.7436 43.2928 66.3546 42.9041C65.7899 42.3398 65.0723 42.2682 64.3557 42.7051ZM72.1289 42.8304C71.6711 43.2879 71.5028 43.8002 71.6361 44.3307C71.6868 44.5324 71.9085 44.8776 72.1289 45.0978C72.4555 45.4242 72.6502 45.4984 73.1793 45.4984C73.7083 45.4984 73.903 45.4242 74.2296 45.0978C74.9465 44.3813 74.9465 43.547 74.2296 42.8304C73.903 42.5041 73.7083 42.4299 73.1793 42.4299C72.6502 42.4299 72.4555 42.5041 72.1289 42.8304Z" fill="#161C22"/>
</svg>
