<svg width="112" height="66" viewBox="0 0 112 66" fill="none" xmlns="http://www.w3.org/2000/svg">
<path fill-rule="evenodd" clip-rule="evenodd" d="M18.3126 0.196305C13.0696 1.06707 8.81961 3.32248 5.30993 7.09681C0.203998 12.5877 -1.35562 20.4806 1.22496 27.77C2.2809 30.7528 4.6708 35.0645 6.04058 36.4579L6.55471 36.9807L6.66049 40.0914C6.77986 43.5987 7.04662 45.642 7.77727 48.641C9.55988 55.9589 13.4577 61.408 18.9189 64.2174C20.4857 65.0233 21.5542 65.3182 23.7316 65.5454C28.3449 66.0271 32.6168 64.323 36.5877 60.4173C39.9432 57.1171 43.5616 51.3599 44.8938 47.202L45.3578 45.7536L47.163 45.2767C51.3738 44.1639 56.0768 42.1874 58.9326 40.3305L59.7785 39.7804L59.6979 41.7715C59.6189 43.7254 59.6252 43.7703 60.0355 44.1878C60.4636 44.6233 61.4517 44.9181 61.8985 44.7436C62.0781 44.6736 62.1485 44.3924 62.1485 43.7461C62.1485 42.6787 62.6756 41.7137 63.926 40.4918C66.0014 38.4635 70.1132 36.4235 72.7679 36.1052L73.6712 35.9968L73.6203 37.9228C73.5569 40.3138 73.855 41.2858 75.0197 42.4876C77.9282 45.4885 83.2152 44.9608 88.0814 41.1839C88.8562 40.5825 89.5218 40.1455 89.5606 40.2127C89.5994 40.2798 89.6865 40.6004 89.7541 40.925C90.1013 42.5939 91.5508 44.2857 93.3792 45.1559C95.0481 45.9504 96.5483 46.2163 99.3691 46.2169C101.736 46.2176 101.931 46.1915 103.406 45.6771C105.757 44.8574 107.084 43.9927 108.991 42.0393C110.402 40.594 110.775 40.0912 111.444 38.7325C112.292 37.0089 112.595 35.8617 112.198 35.8705C112.072 35.8733 111.081 36.7498 109.996 37.8184C106.625 41.1365 103.616 43.1395 100.77 43.9596C99.2519 44.3973 96.803 44.5771 95.8732 44.3192C94.8267 44.029 93.2535 42.9069 92.6573 42.0255C92.3647 41.5928 92.1566 41.2065 92.1952 41.1674C92.2337 41.1281 92.6696 41.0181 93.1638 40.9227C95.1593 40.5378 97.4025 38.9938 98.1595 37.4845C99.1798 35.45 97.4769 33.0165 95.0233 33.003C93.2686 32.9934 91.3215 34.1694 90.5073 35.7308C90.1966 36.3267 89.6737 36.7804 87.7011 38.1657C83.1237 41.3806 81.1595 42.3213 78.9765 42.3444C77.303 42.3623 76.608 42.0122 76.2502 40.9716C76.046 40.3771 76.042 39.9797 76.2239 38.2601C76.4114 36.4849 76.4061 36.1847 76.1791 35.7381C75.8399 35.0707 75.0708 34.4261 74.309 34.1703C73.4255 33.8738 71.1483 34.0709 69.3605 34.5986C67.8971 35.0307 64.9332 36.3997 63.4923 37.3091L62.7638 37.7688L62.847 36.5845C62.9362 35.3171 62.8425 35.0174 62.1654 34.4028C61.8415 34.1087 61.5687 34.0215 61.0709 34.0529L60.4077 34.0945L60.2334 35.7391C60.1374 36.6437 59.9882 37.4556 59.9019 37.5433C59.2355 38.2197 48.8983 42.1036 46.6667 42.5161C46.0274 42.6344 46.0241 42.6322 46.1329 42.1596C46.803 39.2439 46.9219 38.0257 47.0106 33.1641C47.1126 27.5831 47.0051 26.4444 45.9777 22.2214C44.3949 15.7157 41.9254 10.7239 38.4321 6.96897C35.1481 3.43919 31.6508 1.44435 26.9634 0.427021C24.8832 -0.0244671 20.3671 -0.144883 18.3126 0.196305ZM19.3511 2.31529C13.9985 3.11505 8.7669 6.38509 5.80798 10.7807C4.61726 12.5497 3.53148 14.9347 3.0089 16.9294C2.62906 18.3788 2.57568 18.9151 2.56772 21.3611C2.55794 24.3262 2.75357 25.5343 3.67986 28.2311C4.10263 29.4621 6.11536 33.3272 6.50497 33.656C6.69249 33.8144 6.76594 33.5621 6.92841 32.2002C7.03651 31.2942 7.35035 29.4169 7.6259 28.0287C9.42542 18.9586 13.4807 12.8304 17.9228 12.4676C18.9362 12.385 18.997 12.4023 19.5068 12.921C20.359 13.7878 20.1882 14.2984 18.9711 14.5218C17.4241 14.806 15.8973 15.9419 14.471 17.8701C13.4744 19.2173 11.9158 22.4815 11.1842 24.7538C10.1811 27.8687 9.32545 32.789 9.23841 35.9422L9.20608 37.1153L10.1866 38.0238C12.2776 39.9615 15.6995 41.8982 18.8758 42.9416C24.7164 44.8604 33.2589 45.1908 40.6783 43.7849C41.6813 43.5948 42.6252 43.4022 42.7756 43.3567C43.1176 43.2535 43.6163 41.3986 44.0192 38.7325C44.4423 35.931 44.4471 28.3061 44.0275 25.5775C42.2865 14.2594 38.1425 7.26681 31.2204 3.96692C28.0294 2.44582 23.0836 1.75755 19.3511 2.31529ZM94.5611 35.3331C93.5128 35.986 92.5285 37.3479 92.1848 38.6204C92.0288 39.1985 92.0401 39.2559 92.2909 39.1604C93.0237 38.8813 94.4653 37.8904 95.2578 37.1207C96.2162 36.1902 96.4104 35.5205 95.8155 35.1967C95.3664 34.9523 95.1318 34.9778 94.5611 35.3331ZM9.20111 40.9788C9.4813 46.2437 10.4472 50.476 12.2408 54.2978C14.291 58.6663 17.7582 62.1308 20.9937 63.0434C28.2753 65.0975 35.7706 60.0264 40.5985 49.7794C42.0454 46.7087 42.1336 46.4907 41.928 46.4907C41.846 46.4907 40.5987 46.6568 39.1561 46.8598C37.0201 47.1605 35.7338 47.2299 32.2228 47.2327C27.4072 47.237 25.6052 47.0108 21.6397 45.9044C17.5095 44.7523 12.3807 42.2947 10.014 40.3337L9.12765 39.5992L9.20111 40.9788ZM51.3693 55.2357C49.434 56.2819 49.4685 59.2317 51.428 60.2665C52.1276 60.6361 53.6098 60.6253 54.3977 60.2448L55.0194 59.9446V58.7832V57.6219H54.522C54.031 57.6219 54.0247 57.6335 54.0247 58.5297C54.0247 59.3288 53.9799 59.4499 53.6516 59.5395C52.7492 59.7854 52.1767 59.6548 51.6041 59.0723C50.0035 57.4441 51.9681 54.8971 53.9207 56.069C54.4796 56.4043 54.5026 56.4052 54.7735 56.1007C55.1162 55.7155 54.9795 55.4656 54.2584 55.1591C53.4674 54.823 52.0641 54.8601 51.3693 55.2357ZM59.4958 57.7062V60.489H59.9932C60.4722 60.489 60.4906 60.4608 60.4906 59.73V58.9711H61.2287C61.9169 58.9711 62.0015 59.0224 62.4801 59.73C62.9211 60.3821 63.074 60.489 63.5654 60.489H64.1376L63.5412 59.6447L62.945 58.8004L63.4586 58.2052C63.8603 57.7397 63.9723 57.4542 63.9723 56.8946C63.9723 55.4649 63.131 54.9234 60.9104 54.9234H59.4958V57.7062ZM69.3793 55.1914C67.8775 56.048 67.4443 57.9386 68.4074 59.4335C68.8091 60.0572 69.9014 60.5524 70.857 60.544C73.7118 60.519 74.8211 57.0958 72.5365 55.3607C71.9283 54.8988 70.0671 54.7989 69.3793 55.1914ZM78.8807 55.3069C78.009 55.9045 77.5673 56.6941 77.5673 57.6552C77.5673 59.9471 79.8509 61.2672 81.9527 60.1901C82.2218 60.0522 82.5292 59.8506 82.6358 59.742C83.4354 58.9288 83.6131 57.1955 82.993 56.2595C82.3579 55.3007 81.6452 54.9234 80.4687 54.9234C79.6734 54.9234 79.3133 55.0104 78.8807 55.3069ZM87.6255 55.0359C87.5646 55.0976 87.5149 56.3499 87.5149 57.8187V60.489H88.0123H88.5097V58.7925C88.5097 57.8067 88.5733 57.136 88.6617 57.1916C88.7453 57.2441 89.137 57.8571 89.5321 58.5537C90.4571 60.1842 90.6552 60.1714 91.6564 58.416L92.4058 57.1021L92.4531 58.7955L92.5003 60.489H93.0748H93.6493L93.6484 59.3506C93.6479 58.7243 93.5993 57.4721 93.5405 56.5678C93.4389 55.0055 93.4148 54.9234 93.0592 54.9234C92.7591 54.9234 92.4834 55.2742 91.6675 56.6943C91.1078 57.6682 90.6201 58.4651 90.5836 58.4651C90.5469 58.4651 90.0474 57.6682 89.4733 56.6943C88.6801 55.3486 88.3462 54.9234 88.0828 54.9234C87.8919 54.9234 87.6862 54.974 87.6255 55.0359ZM60.4906 56.842V57.9592H61.4025C62.4257 57.9592 62.9775 57.5844 62.9775 56.8891C62.9775 56.2714 62.4208 55.8878 61.4 55.8016L60.4906 55.7248V56.842ZM69.8123 56.1046C68.8338 56.7116 68.6347 58.1054 69.402 58.9789C70.3004 60.0016 72.0235 59.7612 72.5237 58.5437C72.8254 57.8089 72.8201 57.5502 72.4882 56.8388C72.0038 55.8002 70.8247 55.4767 69.8123 56.1046ZM79.5175 56.0306C78.9921 56.3205 78.5621 57.0749 78.5621 57.7062C78.5621 59.5965 81.0846 60.3635 82.0431 58.7645C83.0885 57.0201 81.2772 55.0593 79.5175 56.0306Z" fill="#F8F8FA"/>
</svg>
