<svg width="19" height="21" viewBox="0 0 19 21" fill="none" xmlns="http://www.w3.org/2000/svg">
<path d="M13.4998 8.35048L5.1665 3.54492" stroke="#67666B" stroke-width="1.5" stroke-linecap="round" stroke-linejoin="round"/>
<path d="M17.6667 14.4611V7.05366C17.6663 6.72891 17.5806 6.40996 17.4181 6.12881C17.2556 5.84765 17.022 5.61418 16.7407 5.4518L10.2593 1.7481C9.97774 1.58557 9.6584 1.5 9.33333 1.5C9.00827 1.5 8.68892 1.58557 8.40741 1.7481L1.92593 5.4518C1.64469 5.61418 1.41109 5.84765 1.24858 6.12881C1.08606 6.40996 1.00033 6.72891 1 7.05366V14.4611C1.00033 14.7858 1.08606 15.1048 1.24858 15.3859C1.41109 15.6671 1.64469 15.9005 1.92593 16.0629L8.40741 19.7666C8.68892 19.9292 9.00827 20.0147 9.33333 20.0147C9.6584 20.0147 9.97774 19.9292 10.2593 19.7666L16.7407 16.0629C17.022 15.9005 17.2556 15.6671 17.4181 15.3859C17.5806 15.1048 17.6663 14.7858 17.6667 14.4611Z" stroke="#67666B" stroke-width="1.5" stroke-linecap="round" stroke-linejoin="round"/>
<path d="M1.26855 6.12793L9.33337 10.7576L17.3982 6.12793" stroke="#67666B" stroke-width="1.5" stroke-linecap="round" stroke-linejoin="round"/>
<path d="M9.33325 20.0171V10.7578" stroke="#67666B" stroke-width="1.5" stroke-linecap="round" stroke-linejoin="round"/>
</svg>
