<svg width="20" height="20" viewBox="0 0 20 20" fill="none" xmlns="http://www.w3.org/2000/svg">
<path d="M6.56132 17.0316C8.36034 17.9544 10.4298 18.2044 12.3968 17.7364C14.3638 17.2684 16.099 16.1133 17.2897 14.4792C18.4804 12.845 19.0483 10.8394 18.891 8.82357C18.7338 6.80778 17.8617 4.91444 16.432 3.48473C15.0023 2.05503 13.109 1.18297 11.0932 1.02571C9.07739 0.868452 7.07171 1.43633 5.43758 2.62702C3.80344 3.81771 2.64831 5.5529 2.18034 7.51992C1.71237 9.48693 1.96234 11.5564 2.88519 13.3554L1 18.9167L6.56132 17.0316Z" stroke="#67666B" stroke-width="1.5" stroke-linecap="round" stroke-linejoin="round"/>
<path d="M6.65552 9.49097H6.66593" stroke="#67666B" stroke-width="2" stroke-linecap="round" stroke-linejoin="round"/>
<path d="M10.426 9.49097H10.4364" stroke="#67666B" stroke-width="2" stroke-linecap="round" stroke-linejoin="round"/>
<path d="M14.1965 9.49097H14.207" stroke="#67666B" stroke-width="2" stroke-linecap="round" stroke-linejoin="round"/>
</svg>
