<svg width="19" height="19" viewBox="0 0 19 19" fill="none" xmlns="http://www.w3.org/2000/svg">
<path d="M17.0548 0.980713H12.3294C11.8074 0.980713 11.3843 1.40384 11.3843 1.9258V6.65124C11.3843 7.1732 11.8074 7.59633 12.3294 7.59633H17.0548C17.5768 7.59633 17.9999 7.1732 17.9999 6.65124V1.9258C17.9999 1.40384 17.5768 0.980713 17.0548 0.980713Z" stroke="#67666B" stroke-width="1.5" stroke-linecap="round" stroke-linejoin="round"/>
<path d="M7.49068 17.7276V5.44143C7.49068 5.19077 7.3911 4.95039 7.21387 4.77315C7.03663 4.59591 6.79624 4.49634 6.54559 4.49634H1.82015C1.5695 4.49634 1.32911 4.59591 1.15187 4.77315C0.974632 4.95039 0.875061 5.19077 0.875061 5.44143V16.7825C0.875061 17.0331 0.974632 17.2735 1.15187 17.4508C1.32911 17.628 1.5695 17.7276 1.82015 17.7276H13.1612C13.4119 17.7276 13.6522 17.628 13.8295 17.4508C14.0067 17.2735 14.1063 17.0331 14.1063 16.7825V12.057C14.1063 11.8064 14.0067 11.566 13.8295 11.3888C13.6522 11.2115 13.4119 11.112 13.1612 11.112H0.875061" stroke="#67666B" stroke-width="1.5" stroke-linecap="round" stroke-linejoin="round"/>
</svg>
