<svg width="21" height="19" viewBox="0 0 21 19" fill="none" xmlns="http://www.w3.org/2000/svg">
<path d="M16.1999 18.0497C16.1999 16.0341 15.3992 14.101 13.9739 12.6757C12.5486 11.2504 10.6155 10.4497 8.59988 10.4497C6.58423 10.4497 4.65114 11.2504 3.22587 12.6757C1.80059 14.101 0.999878 16.0341 0.999878 18.0497" stroke="#67666B" stroke-width="1.5" stroke-linecap="round" stroke-linejoin="round"/>
<path d="M8.59985 10.45C11.2232 10.45 13.3499 8.32331 13.3499 5.69995C13.3499 3.0766 11.2232 0.949951 8.59985 0.949951C5.9765 0.949951 3.84985 3.0766 3.84985 5.69995C3.84985 8.32331 5.9765 10.45 8.59985 10.45Z" stroke="#67666B" stroke-width="1.5" stroke-linecap="round" stroke-linejoin="round"/>
<path d="M20 17.0998C20 13.8982 18.1 10.9247 16.2 9.49975C16.8245 9.03118 17.3239 8.41588 17.654 7.7083C17.9841 7.00073 18.1346 6.22269 18.0924 5.44306C18.0501 4.66342 17.8163 3.90623 17.4117 3.23849C17.007 2.57074 16.444 2.01305 15.7725 1.61475" stroke="#67666B" stroke-width="1.5" stroke-linecap="round" stroke-linejoin="round"/>
</svg>
